<svg xmlns="http://www.w3.org/2000/svg" xmlns:xlink="http://www.w3.org/1999/xlink" width="500" zoomAndPan="magnify" viewBox="0 0 375 374.999991" height="500" preserveAspectRatio="xMidYMid meet" version="1.0"><defs><g/><clipPath id="id1"><path d="M 91.375 184.773438 L 283.773438 184.773438 L 283.773438 283.566406 L 91.375 283.566406 Z M 91.375 184.773438 " clip-rule="nonzero"/></clipPath></defs><path fill="#0e100f" d="M 118.980469 175.867188 L 176.347656 175.867188 L 176.347656 179.398438 L 118.980469 179.398438 Z M 200.941406 175.867188 L 257.460938 175.867188 L 257.460938 179.398438 L 200.941406 179.398438 L 200.941406 175.867188 " fill-opacity="1" fill-rule="nonzero"/><g clip-path="url(#id1)"><path fill="#0e100f" d="M 200.964844 184.917969 L 277.839844 184.917969 L 277.839844 186.683594 C 277.839844 187.824219 278.308594 188.867188 279.0625 189.621094 C 279.820312 190.378906 280.859375 190.847656 282.003906 190.847656 L 283.773438 190.847656 L 283.773438 236.957031 L 282.003906 236.957031 C 280.859375 236.957031 279.820312 237.425781 279.0625 238.183594 C 278.308594 238.9375 277.839844 239.980469 277.839844 241.125 L 277.839844 242.890625 L 259.367188 242.890625 C 252.015625 255.144531 241.609375 265.367188 229.203125 272.5 C 216.933594 279.550781 202.71875 283.585938 187.574219 283.585938 C 172.429688 283.585938 158.210938 279.550781 145.945312 272.5 C 133.535156 265.367188 123.132812 255.144531 115.78125 242.890625 L 97.308594 242.890625 L 97.308594 241.125 C 97.308594 239.980469 96.839844 238.9375 96.082031 238.183594 C 95.324219 237.425781 94.289062 236.957031 93.144531 236.957031 L 91.375 236.957031 L 91.375 190.847656 L 93.144531 190.847656 C 94.289062 190.847656 95.324219 190.378906 96.082031 189.621094 C 96.839844 188.867188 97.308594 187.824219 97.308594 186.683594 L 97.308594 184.917969 L 176.175781 184.917969 L 176.175781 188.449219 L 100.636719 188.449219 C 100.300781 189.859375 99.574219 191.125 98.582031 192.117188 C 97.585938 193.113281 96.320312 193.839844 94.910156 194.175781 L 94.910156 233.632812 C 96.320312 233.964844 97.585938 234.691406 98.582031 235.6875 C 99.574219 236.679688 100.300781 237.945312 100.636719 239.355469 L 274.511719 239.355469 C 274.847656 237.945312 275.574219 236.679688 276.566406 235.6875 C 277.5625 234.691406 278.824219 233.964844 280.238281 233.632812 L 280.238281 194.175781 C 278.824219 193.839844 277.5625 193.113281 276.566406 192.117188 C 275.574219 191.125 274.847656 189.859375 274.511719 188.449219 L 200.964844 188.449219 Z M 255.226562 242.890625 L 119.921875 242.890625 C 126.886719 253.832031 136.429688 262.972656 147.695312 269.449219 C 159.429688 276.195312 173.046875 280.054688 187.574219 280.054688 C 202.101562 280.054688 215.714844 276.195312 227.453125 269.449219 C 238.71875 262.972656 248.261719 253.832031 255.226562 242.890625 " fill-opacity="1" fill-rule="nonzero"/></g><path fill="#0e100f" d="M 187.128906 175.558594 L 185.152344 175.558594 L 185.140625 174.53125 L 187.125 174.53125 L 187.128906 175.558594 " fill-opacity="1" fill-rule="nonzero"/><path fill="#0e100f" d="M 187.433594 174.53125 L 189.675781 174.53125 L 189.484375 160.269531 L 187.363281 160.269531 L 187.433594 174.53125 " fill-opacity="1" fill-rule="nonzero"/><path fill="#0e100f" d="M 189.988281 174.53125 L 192.308594 174.53125 L 192.082031 160.269531 L 189.792969 160.269531 L 189.988281 174.53125 " fill-opacity="1" fill-rule="nonzero"/><path fill="#0e100f" d="M 182.5625 174.53125 L 184.828125 174.53125 L 184.667969 160.269531 L 182.5625 160.269531 L 182.5625 174.53125 " fill-opacity="1" fill-rule="nonzero"/><path fill="#0e100f" d="M 192.621094 174.53125 L 194.429688 174.53125 L 194.191406 160.269531 L 192.390625 160.269531 L 192.621094 174.53125 " fill-opacity="1" fill-rule="nonzero"/><path fill="#0e100f" d="M 187.125 174.53125 L 185.140625 174.53125 L 184.980469 160.269531 L 187.054688 160.269531 L 187.125 174.53125 " fill-opacity="1" fill-rule="nonzero"/><path fill="#0e100f" d="M 195.808594 160.269531 L 194.503906 160.269531 L 194.738281 174.53125 L 195.765625 174.53125 L 195.765625 175.558594 L 194.757812 175.558594 L 194.964844 188.042969 L 194.800781 188.046875 L 195.800781 188.046875 L 195.765625 174.355469 L 195.808594 160.257812 L 195.808594 160.269531 " fill-opacity="1" fill-rule="nonzero"/><path fill="#0e100f" d="M 182.5625 175.558594 L 182.5625 188.046875 L 184.984375 188.046875 L 184.84375 175.558594 L 182.5625 175.558594 " fill-opacity="1" fill-rule="nonzero"/><path fill="#0e100f" d="M 192.632812 175.558594 L 192.832031 188.042969 L 192.671875 188.046875 L 194.652344 188.046875 L 194.445312 175.558594 L 192.632812 175.558594 " fill-opacity="1" fill-rule="nonzero"/><path fill="#0e100f" d="M 187.441406 175.558594 L 187.5 188.046875 L 187.308594 188.046875 L 189.859375 188.046875 L 189.691406 175.558594 L 187.441406 175.558594 " fill-opacity="1" fill-rule="nonzero"/><path fill="#0e100f" d="M 190 175.558594 L 190.167969 188.046875 L 189.980469 188.046875 L 192.519531 188.046875 L 192.324219 175.558594 L 190 175.558594 " fill-opacity="1" fill-rule="nonzero"/><path fill="#0e100f" d="M 185.09375 188.046875 L 185.292969 188.046875 L 185.152344 175.558594 L 187.128906 175.558594 L 187.191406 188.046875 L 185.09375 188.046875 " fill-opacity="1" fill-rule="nonzero"/><path fill="#0e100f" d="M 181.558594 175.558594 L 181.320312 188.046875 L 182.25 188.046875 L 182.25 175.558594 L 181.558594 175.558594 " fill-opacity="1" fill-rule="nonzero"/><path fill="#0e100f" d="M 201.832031 114.785156 C 203.617188 110.460938 208.949219 110.632812 209.3125 103.789062 C 209.535156 99.574219 207.40625 94.996094 203.429688 93.542969 C 198.070312 91.582031 192.484375 94.367188 190.3125 99.546875 C 190.023438 100.230469 189.726562 101.027344 189.460938 101.78125 L 187.25 100.902344 C 187.5625 99.496094 187.15625 98.203125 186.234375 97.882812 C 185.199219 97.519531 183.902344 98.527344 183.34375 100.136719 C 182.785156 101.742188 183.171875 103.339844 184.207031 103.699219 C 185.136719 104.023438 186.273438 103.246094 186.898438 101.921875 L 189.105469 102.800781 C 188.324219 105.097656 187.710938 107.40625 187.054688 109.742188 L 184.683594 108.800781 C 184.992188 107.390625 184.585938 106.097656 183.667969 105.777344 C 182.632812 105.417969 181.335938 106.425781 180.777344 108.035156 C 180.214844 109.640625 180.601562 111.234375 181.636719 111.597656 C 182.566406 111.921875 183.703125 111.140625 184.332031 109.820312 L 186.761719 110.785156 L 184.753906 117.933594 L 182.449219 117.019531 C 182.761719 115.613281 182.355469 114.320312 181.433594 114 C 180.398438 113.640625 179.101562 114.648438 178.546875 116.257812 C 177.984375 117.863281 178.371094 119.457031 179.40625 119.820312 C 180.335938 120.144531 181.472656 119.363281 182.097656 118.042969 L 184.460938 118.976562 L 182.542969 125.804688 L 180.144531 124.855469 C 180.457031 123.445312 180.050781 122.152344 179.128906 121.832031 C 178.09375 121.46875 176.800781 122.480469 176.238281 124.085938 C 175.679688 125.695312 176.0625 127.289062 177.101562 127.648438 C 178.027344 127.972656 179.164062 127.195312 179.796875 125.875 L 182.246094 126.851562 L 180.28125 133.851562 L 177.921875 132.917969 C 178.234375 131.507812 177.828125 130.21875 176.910156 129.894531 C 175.875 129.535156 174.578125 130.546875 174.019531 132.152344 C 173.460938 133.757812 173.84375 135.351562 174.878906 135.714844 C 175.808594 136.039062 176.945312 135.261719 177.574219 133.9375 L 179.988281 134.898438 L 177.910156 142.289062 L 175.511719 141.335938 C 175.824219 139.925781 175.417969 138.636719 174.496094 138.3125 C 173.460938 137.953125 172.167969 138.960938 171.605469 140.566406 C 171.046875 142.175781 171.433594 143.773438 172.46875 144.132812 C 173.398438 144.457031 174.535156 143.679688 175.160156 142.355469 L 177.617188 143.332031 L 176 149.089844 C 175.023438 152.5625 175.140625 153.449219 178.640625 155.1875 C 180.757812 156.246094 181.390625 157.371094 181.574219 159.027344 L 182.25 159.027344 L 182.25 146.320312 C 181.9375 146.710938 181.457031 146.964844 180.917969 146.964844 C 179.976562 146.964844 179.214844 146.199219 179.214844 145.257812 C 179.214844 144.320312 179.976562 143.554688 180.917969 143.554688 C 181.859375 143.554688 182.621094 144.320312 182.621094 145.257812 C 182.621094 145.414062 182.597656 145.566406 182.5625 145.710938 L 182.5625 159.027344 L 184.65625 159.027344 L 184.421875 138.40625 C 184.113281 138.84375 183.601562 139.132812 183.027344 139.132812 C 182.085938 139.132812 181.320312 138.371094 181.320312 137.429688 C 181.320312 136.488281 182.085938 135.726562 183.027344 135.726562 C 183.964844 135.726562 184.730469 136.488281 184.730469 137.429688 C 184.730469 137.476562 184.726562 137.523438 184.722656 137.570312 L 184.964844 159.027344 L 187.046875 159.027344 L 186.90625 130.152344 C 186.59375 130.574219 186.09375 130.851562 185.527344 130.851562 C 184.585938 130.851562 183.824219 130.089844 183.824219 129.148438 C 183.824219 128.207031 184.585938 127.445312 185.527344 127.445312 C 186.46875 127.445312 187.230469 128.207031 187.230469 129.148438 C 187.230469 129.238281 187.222656 129.324219 187.210938 129.410156 L 187.355469 159.027344 L 189.46875 159.027344 L 188.96875 122.164062 C 188.664062 122.613281 188.148438 122.90625 187.5625 122.90625 C 186.621094 122.90625 185.859375 122.144531 185.859375 121.203125 C 185.859375 120.261719 186.621094 119.5 187.5625 119.5 C 188.410156 119.5 189.109375 120.117188 189.242188 120.929688 L 189.265625 120.929688 L 189.777344 159.027344 L 192.0625 159.027344 L 191.34375 113.832031 C 191.039062 114.277344 190.527344 114.566406 189.945312 114.566406 C 189.003906 114.566406 188.242188 113.800781 188.242188 112.859375 C 188.242188 111.921875 189.003906 111.15625 189.945312 111.15625 C 190.886719 111.15625 191.652344 111.921875 191.652344 112.859375 C 191.652344 112.917969 191.648438 112.972656 191.644531 113.027344 L 192.375 159.027344 L 194.171875 159.027344 L 193.292969 105.941406 C 192.984375 106.390625 192.472656 106.679688 191.890625 106.679688 C 190.949219 106.679688 190.1875 105.917969 190.1875 104.976562 C 190.1875 104.035156 190.949219 103.273438 191.890625 103.273438 C 192.832031 103.273438 193.59375 104.035156 193.59375 104.976562 C 193.59375 105.015625 193.59375 105.054688 193.589844 105.089844 L 194.484375 159.027344 L 195.8125 159.027344 L 195.820312 156.097656 C 196.808594 147.601562 204.527344 146.523438 209.96875 145.625 C 210.367188 134.074219 199.019531 121.597656 201.832031 114.785156 " fill-opacity="1" fill-rule="nonzero"/><path fill="#0e100f" d="M 182.25 160.269531 L 181.644531 160.269531 C 181.648438 160.542969 181.648438 160.828125 181.648438 161.128906 L 181.601562 173.371094 L 181.578125 174.53125 L 182.25 174.53125 L 182.25 160.269531 " fill-opacity="1" fill-rule="nonzero"/><path fill="#0e100f" d="M 218.53125 251.914062 C 214.503906 255.734375 209.777344 258.816406 204.5625 260.945312 C 199.316406 263.085938 193.582031 264.265625 187.574219 264.265625 C 181.566406 264.265625 175.832031 263.085938 170.585938 260.945312 C 165.371094 258.816406 160.644531 255.734375 156.617188 251.914062 L 100.398438 251.914062 L 100.398438 248.382812 L 174.808594 248.382812 L 174.808594 251.914062 L 162 251.914062 C 164.996094 254.265625 168.328125 256.214844 171.910156 257.675781 C 176.738281 259.648438 182.027344 260.734375 187.574219 260.734375 C 193.117188 260.734375 198.410156 259.648438 203.238281 257.675781 C 206.816406 256.214844 210.152344 254.265625 213.148438 251.914062 L 200.339844 251.914062 L 200.339844 248.382812 L 274.75 248.382812 L 274.75 251.914062 L 218.53125 251.914062 " fill-opacity="1" fill-rule="nonzero"/><path fill="#0e100f" d="M 187.566406 243.796875 L 189.839844 248.839844 L 195.34375 249.445312 L 191.25 253.164062 L 192.375 258.582031 L 187.566406 255.835938 L 182.761719 258.582031 L 183.886719 253.164062 L 179.792969 249.445312 L 185.292969 248.839844 L 187.566406 243.796875 " fill-opacity="1" fill-rule="evenodd"/><g fill="#0e100f" fill-opacity="1"><g transform="translate(100.075024, 229.74454)"><g><path d="M 16.929688 0.328125 C 17.679688 0.328125 18.105469 -0.046875 18.246094 -0.753906 C 19.1875 -5.925781 20.125 -9.921875 20.878906 -13.449219 C 21.632812 -17.070312 22.429688 -19.796875 22.714844 -20.972656 L 22.761719 -20.503906 C 22.855469 -19.1875 22.949219 -17.871094 22.949219 -16.457031 C 22.949219 -9.875 22.007812 -3.808594 21.492188 -1.128906 C 21.300781 -0.140625 21.773438 0.234375 22.667969 0.09375 C 23.558594 -0.046875 24.59375 -0.140625 26.144531 -0.140625 C 28.167969 -0.140625 28.449219 -0.046875 29.8125 0.140625 C 30.660156 0.28125 31.175781 -0.1875 30.988281 -1.175781 C 30.519531 -3.761719 29.578125 -9.828125 29.578125 -16.457031 C 29.578125 -23.089844 30.519531 -29.15625 30.988281 -31.742188 C 31.175781 -32.730469 30.660156 -33.199219 29.8125 -33.058594 C 28.449219 -32.871094 28.167969 -32.777344 26.144531 -32.777344 C 24.125 -32.777344 22.523438 -32.917969 21.160156 -33.058594 C 20.503906 -33.152344 19.984375 -32.824219 19.890625 -32.070312 C 19.421875 -27.980469 17.585938 -20.925781 15.847656 -12.835938 C 14.109375 -21.394531 12.320312 -28.214844 11.851562 -32.070312 C 11.757812 -32.824219 11.332031 -33.199219 10.582031 -33.105469 C 9.027344 -32.917969 7.195312 -32.777344 5.359375 -32.777344 C 3.761719 -32.777344 2.773438 -32.871094 1.832031 -33.011719 C 0.988281 -33.152344 0.5625 -32.683594 0.707031 -31.789062 C 1.175781 -29.109375 2.117188 -23.042969 2.117188 -16.457031 C 2.117188 -9.828125 1.175781 -3.808594 0.707031 -1.175781 C 0.515625 -0.1875 0.988281 0.234375 1.832031 0.09375 C 2.773438 -0.046875 3.761719 -0.140625 5.359375 -0.140625 C 7.289062 -0.140625 7.851562 -0.046875 9.027344 0.140625 C 9.96875 0.28125 10.34375 -0.28125 10.203125 -1.128906 C 9.6875 -3.761719 8.746094 -9.875 8.746094 -16.457031 C 8.746094 -17.917969 8.839844 -19.28125 8.980469 -20.644531 L 8.980469 -20.785156 C 9.640625 -18.855469 10.296875 -16.554688 10.957031 -13.449219 C 11.613281 -10.535156 12.742188 -5.03125 13.449219 -0.800781 C 13.589844 -0.046875 13.964844 0.328125 14.765625 0.328125 Z M 16.929688 0.328125 "/></g></g></g><g fill="#0e100f" fill-opacity="1"><g transform="translate(131.763506, 229.74454)"><g><path d="M 11.992188 0.707031 C 16.835938 0.707031 21.445312 -1.644531 21.492188 -8.605469 L 21.539062 -16.503906 C 21.585938 -23.136719 22.476562 -29.15625 22.996094 -31.789062 C 23.183594 -32.730469 22.667969 -33.199219 21.820312 -33.058594 C 20.503906 -32.871094 20.222656 -32.777344 18.152344 -32.777344 C 16.554688 -32.777344 15.613281 -32.871094 14.625 -33.011719 C 13.777344 -33.152344 13.355469 -32.683594 13.496094 -31.742188 C 14.011719 -28.875 14.90625 -23.183594 14.90625 -16.316406 C 14.90625 -10.488281 13.871094 -5.878906 11.945312 -5.878906 C 9.59375 -5.878906 8.605469 -10.488281 8.605469 -16.503906 C 8.605469 -22.761719 9.546875 -29.390625 10.015625 -31.835938 C 10.203125 -32.730469 9.734375 -33.152344 8.886719 -33.058594 C 7.476562 -32.871094 7.101562 -32.777344 5.171875 -32.777344 C 3.621094 -32.777344 2.585938 -32.871094 1.691406 -33.011719 C 0.800781 -33.152344 0.375 -32.683594 0.515625 -31.835938 C 1.035156 -29.109375 1.976562 -23.089844 1.976562 -16.503906 L 1.976562 -8.933594 C 1.976562 -1.691406 7.054688 0.707031 11.992188 0.707031 Z M 11.992188 0.707031 "/></g></g></g><g fill="#0e100f" fill-opacity="1"><g transform="translate(155.271282, 229.74454)"><g><path d="M 8.417969 0.707031 C 15.472656 0.707031 18.808594 -3.054688 18.808594 -8.886719 C 18.808594 -13.402344 15.800781 -16.222656 12.695312 -18.667969 C 10.390625 -20.550781 7.148438 -22.335938 7.148438 -24.5 C 7.148438 -26.710938 8.933594 -27.226562 10.390625 -27.226562 C 11.710938 -27.226562 13.730469 -26.664062 15.941406 -23.984375 C 16.648438 -23.136719 17.210938 -23.277344 17.210938 -24.359375 C 17.210938 -27.179688 17.257812 -29.953125 17.445312 -31.929688 C 17.492188 -32.777344 17.117188 -33.152344 16.316406 -33.105469 C 14.203125 -33.011719 12.933594 -33.621094 10.0625 -33.621094 C 4.515625 -33.621094 0.515625 -30.238281 0.515625 -24.5 C 0.515625 -20.550781 1.644531 -18.011719 5.03125 -14.90625 C 7.523438 -12.648438 11.664062 -10.203125 11.664062 -8.230469 C 11.664062 -6.535156 10.15625 -5.832031 8.511719 -5.832031 C 6.535156 -5.832031 4.375 -7.054688 2.539062 -9.167969 C 1.832031 -9.96875 1.363281 -9.828125 1.410156 -8.746094 C 1.457031 -6.253906 1.222656 -3.339844 1.035156 -0.941406 C 0.941406 -0.09375 1.410156 0.328125 2.210938 0.328125 C 4.277344 0.328125 5.550781 0.707031 8.417969 0.707031 Z M 8.417969 0.707031 "/></g></g></g><g fill="#0e100f" fill-opacity="1"><g transform="translate(174.594676, 229.74454)"><g><path d="M 8.839844 0.140625 C 9.734375 0.234375 10.15625 -0.1875 10.015625 -1.082031 C 9.59375 -3.761719 8.746094 -9.828125 8.746094 -16.457031 C 8.746094 -23.089844 9.59375 -29.15625 10.015625 -31.835938 C 10.15625 -32.730469 9.734375 -33.152344 8.839844 -33.058594 C 7.804688 -32.871094 6.914062 -32.777344 5.359375 -32.777344 C 3.902344 -32.777344 2.960938 -32.871094 2.070312 -33.011719 C 1.175781 -33.152344 0.753906 -32.683594 0.894531 -31.789062 C 1.316406 -29.15625 2.164062 -23.042969 2.164062 -16.457031 C 2.164062 -9.875 1.316406 -3.761719 0.894531 -1.128906 C 0.753906 -0.1875 1.175781 0.234375 2.070312 0.09375 C 2.960938 -0.046875 3.902344 -0.140625 5.359375 -0.140625 C 6.914062 -0.140625 7.804688 -0.046875 8.839844 0.140625 Z M 8.839844 0.140625 "/></g></g></g><g fill="#0e100f" fill-opacity="1"><g transform="translate(185.502279, 229.74454)"><g><path d="M 12.039062 0.707031 C 14.90625 0.707031 16.175781 0.09375 18.199219 0.1875 C 19.09375 0.234375 19.515625 -0.140625 19.421875 -0.988281 C 19.234375 -3.433594 19.046875 -6.347656 19.09375 -8.839844 C 19.140625 -9.875 18.714844 -9.96875 18.058594 -9.121094 C 16.222656 -6.675781 14.8125 -5.878906 13.167969 -5.878906 C 10.296875 -5.878906 8.230469 -10.488281 8.230469 -16.316406 C 8.230469 -22.808594 10.296875 -27.039062 13.167969 -27.039062 C 14.8125 -27.039062 16.269531 -26.050781 17.871094 -24.03125 C 18.574219 -23.136719 19.140625 -23.277344 19.09375 -24.359375 C 19.046875 -26.804688 19.1875 -29.625 19.421875 -31.929688 C 19.515625 -32.777344 19.09375 -33.152344 18.246094 -33.105469 C 16.175781 -33.011719 14.90625 -33.621094 12.039062 -33.621094 C 4.890625 -33.621094 0.660156 -27.226562 0.660156 -16.503906 C 0.660156 -4.796875 4.890625 0.707031 12.039062 0.707031 Z M 12.039062 0.707031 "/></g></g></g><g fill="#0e100f" fill-opacity="1"><g transform="translate(205.671952, 229.74454)"><g><path d="M 9.121094 0.140625 C 10.015625 0.234375 10.441406 -0.234375 10.296875 -1.128906 C 10.0625 -2.445312 9.640625 -4.703125 9.359375 -7.476562 L 10.109375 -7.476562 C 17.257812 -7.523438 21.207031 -13.261719 21.207031 -20.410156 C 21.207031 -28.589844 18.386719 -33.246094 10.296875 -33.246094 C 6.675781 -33.199219 5.125 -32.683594 1.929688 -33.058594 C 1.082031 -33.152344 0.609375 -32.730469 0.800781 -31.835938 C 1.269531 -29.15625 2.210938 -23.042969 2.210938 -16.457031 C 2.210938 -9.875 1.269531 -3.808594 0.800781 -1.128906 C 0.609375 -0.234375 1.082031 0.234375 1.929688 0.09375 C 2.867188 -0.046875 3.855469 -0.140625 5.453125 -0.140625 C 7.101562 -0.140625 8.136719 -0.046875 9.121094 0.140625 Z M 8.933594 -13.261719 C 8.886719 -14.296875 8.839844 -15.378906 8.839844 -16.457031 C 8.839844 -18.902344 8.980469 -21.300781 9.167969 -23.511719 C 9.40625 -25.582031 10.0625 -27.558594 11.566406 -27.558594 C 13.589844 -27.558594 14.625 -24.875 14.625 -19.984375 C 14.625 -15.800781 12.835938 -13.308594 10.109375 -13.261719 Z M 8.933594 -13.261719 "/></g></g></g><g fill="#0e100f" fill-opacity="1"><g transform="translate(227.158062, 229.74454)"><g><path d="M 9.121094 0.140625 C 9.96875 0.234375 10.390625 -0.234375 10.203125 -1.128906 C 9.828125 -3.054688 9.167969 -6.867188 8.933594 -11.757812 C 11.992188 -11.332031 14.671875 -9.59375 14.671875 -6.253906 C 14.671875 -3.808594 14.4375 -2.117188 14.15625 -1.082031 C 13.964844 -0.1875 14.25 0.234375 15.140625 0.09375 C 15.894531 0 16.648438 -0.09375 18.152344 -0.09375 C 19.796875 -0.09375 21.066406 0 22.195312 0.140625 C 23.136719 0.234375 23.558594 -0.234375 23.277344 -1.175781 C 22.714844 -2.679688 21.960938 -5.171875 21.539062 -7.617188 C 21.207031 -9.359375 19.703125 -12.273438 17.117188 -13.917969 C 19.75 -15.472656 21.207031 -18.292969 21.207031 -22.476562 C 21.207031 -29.4375 17.351562 -33.152344 10.0625 -33.246094 C 6.722656 -33.199219 5.125 -32.683594 1.929688 -33.058594 C 1.035156 -33.152344 0.5625 -32.730469 0.753906 -31.835938 C 1.269531 -29.15625 2.210938 -23.042969 2.210938 -16.457031 C 2.210938 -9.875 1.269531 -3.808594 0.753906 -1.128906 C 0.5625 -0.234375 1.035156 0.234375 1.929688 0.09375 C 2.820312 -0.046875 3.855469 -0.140625 5.40625 -0.140625 C 7.101562 -0.140625 8.042969 -0.046875 9.121094 0.140625 Z M 8.839844 -15.09375 C 8.839844 -18.480469 8.558594 -21.960938 9.121094 -24.96875 C 9.40625 -26.429688 10.390625 -27.558594 11.566406 -27.558594 C 13.589844 -27.558594 14.578125 -26.097656 14.578125 -22.476562 C 14.578125 -17.539062 12.789062 -15.09375 10.0625 -15.09375 Z M 8.839844 -15.09375 "/></g></g></g><g fill="#0e100f" fill-opacity="1"><g transform="translate(250.900911, 229.74454)"><g><path d="M 12.039062 0.707031 C 19.234375 0.707031 23.417969 -4.796875 23.417969 -16.503906 C 23.417969 -27.226562 19.234375 -33.621094 12.039062 -33.621094 C 4.84375 -33.621094 0.609375 -27.226562 0.609375 -16.503906 C 0.609375 -4.796875 4.84375 0.707031 12.039062 0.707031 Z M 11.992188 -5.878906 C 9.6875 -5.878906 8.183594 -10.488281 8.183594 -16.316406 C 8.183594 -22.808594 9.6875 -27.039062 11.992188 -27.039062 C 14.296875 -27.039062 15.800781 -22.808594 15.800781 -16.316406 C 15.800781 -10.488281 14.296875 -5.878906 11.992188 -5.878906 Z M 11.992188 -5.878906 "/></g></g></g><g fill="#0e100f" fill-opacity="1"><g transform="translate(143.06029, 261.862345)"><g><path d="M 0.796875 0.546875 C 0.710938 0.484375 0.664062 0.410156 0.65625 0.328125 C 0.644531 0.242188 0.664062 0.160156 0.71875 0.078125 L 5.546875 -6.9375 C 5.609375 -7.03125 5.664062 -7.078125 5.71875 -7.078125 C 5.769531 -7.085938 5.835938 -7.066406 5.921875 -7.015625 L 8.765625 -5.0625 C 8.847656 -5 8.898438 -4.945312 8.921875 -4.90625 C 8.941406 -4.863281 8.941406 -4.796875 8.921875 -4.703125 L 7.765625 -0.734375 C 7.742188 -0.671875 7.75 -0.628906 7.78125 -0.609375 C 7.800781 -0.597656 7.835938 -0.613281 7.890625 -0.65625 L 10.984375 -3.125 C 11.171875 -3.269531 11.328125 -3.300781 11.453125 -3.21875 L 14.390625 -1.203125 C 14.515625 -1.117188 14.53125 -1.007812 14.4375 -0.875 L 9.609375 6.15625 C 9.535156 6.269531 9.457031 6.328125 9.375 6.328125 C 9.289062 6.335938 9.191406 6.304688 9.078125 6.234375 L 7.359375 5.046875 C 7.253906 4.972656 7.195312 4.90625 7.1875 4.84375 C 7.175781 4.789062 7.203125 4.71875 7.265625 4.625 L 10.40625 0.0625 C 10.4375 0.0078125 10.441406 -0.0234375 10.421875 -0.046875 C 10.390625 -0.0664062 10.335938 -0.0625 10.265625 -0.03125 L 5.640625 3.59375 C 5.503906 3.6875 5.378906 3.691406 5.265625 3.609375 L 4.203125 2.875 C 4.078125 2.800781 4.035156 2.6875 4.078125 2.53125 L 5.734375 -3.03125 C 5.753906 -3.101562 5.753906 -3.148438 5.734375 -3.171875 C 5.703125 -3.191406 5.660156 -3.164062 5.609375 -3.09375 L 2.53125 1.40625 C 2.46875 1.488281 2.410156 1.535156 2.359375 1.546875 C 2.316406 1.566406 2.242188 1.539062 2.140625 1.46875 Z M 0.796875 0.546875 "/></g></g></g><g fill="#0e100f" fill-opacity="1"><g transform="translate(153.726751, 268.95874)"><g><path d="M 9.171875 0.3125 C 8.597656 1.53125 7.878906 2.253906 7.015625 2.484375 C 6.160156 2.710938 5.160156 2.554688 4.015625 2.015625 C 2.734375 1.410156 1.957031 0.6875 1.6875 -0.15625 C 1.414062 -1.007812 1.566406 -2.046875 2.140625 -3.265625 L 4.265625 -7.78125 C 4.304688 -7.863281 4.351562 -7.921875 4.40625 -7.953125 C 4.457031 -7.984375 4.515625 -7.984375 4.578125 -7.953125 L 6.703125 -6.953125 C 6.835938 -6.890625 6.875 -6.78125 6.8125 -6.625 L 4.546875 -1.796875 C 4.285156 -1.253906 4.203125 -0.8125 4.296875 -0.46875 C 4.390625 -0.125 4.640625 0.140625 5.046875 0.328125 C 5.429688 0.503906 5.796875 0.523438 6.140625 0.390625 C 6.492188 0.253906 6.804688 -0.09375 7.078125 -0.65625 L 9.3125 -5.421875 C 9.382812 -5.597656 9.488281 -5.648438 9.625 -5.578125 L 11.296875 -4.796875 C 11.441406 -4.734375 11.484375 -4.625 11.421875 -4.46875 Z M 9.171875 0.3125 "/></g></g></g><g fill="#0e100f" fill-opacity="1"><g transform="translate(162.458802, 272.992565)"><g><path d="M 7.796875 -4.578125 C 7.679688 -4.847656 7.53125 -5.070312 7.34375 -5.25 C 7.15625 -5.425781 6.859375 -5.578125 6.453125 -5.703125 C 6.046875 -5.828125 5.726562 -5.859375 5.5 -5.796875 C 5.269531 -5.742188 5.128906 -5.640625 5.078125 -5.484375 C 4.992188 -5.191406 5.175781 -4.910156 5.625 -4.640625 L 7.421875 -3.53125 C 8.078125 -3.125 8.519531 -2.640625 8.75 -2.078125 C 8.976562 -1.515625 8.992188 -0.921875 8.796875 -0.296875 C 8.609375 0.296875 8.296875 0.757812 7.859375 1.09375 C 7.421875 1.4375 6.878906 1.632812 6.234375 1.6875 C 5.597656 1.75 4.894531 1.660156 4.125 1.421875 C 3.269531 1.148438 2.53125 0.757812 1.90625 0.25 C 1.289062 -0.257812 0.914062 -0.785156 0.78125 -1.328125 C 0.757812 -1.421875 0.753906 -1.488281 0.765625 -1.53125 C 0.785156 -1.613281 0.851562 -1.664062 0.96875 -1.6875 L 2.4375 -2.15625 C 2.550781 -2.1875 2.640625 -2.191406 2.703125 -2.171875 C 2.796875 -2.140625 2.859375 -2.082031 2.890625 -2 C 3.046875 -1.570312 3.238281 -1.242188 3.46875 -1.015625 C 3.695312 -0.796875 4.039062 -0.613281 4.5 -0.46875 C 4.9375 -0.332031 5.300781 -0.285156 5.59375 -0.328125 C 5.882812 -0.367188 6.0625 -0.492188 6.125 -0.703125 C 6.175781 -0.847656 6.15625 -0.992188 6.0625 -1.140625 C 5.96875 -1.285156 5.8125 -1.425781 5.59375 -1.5625 L 3.9375 -2.5625 C 3.289062 -2.957031 2.828125 -3.453125 2.546875 -4.046875 C 2.273438 -4.648438 2.238281 -5.265625 2.4375 -5.890625 C 2.59375 -6.398438 2.890625 -6.820312 3.328125 -7.15625 C 3.765625 -7.488281 4.296875 -7.691406 4.921875 -7.765625 C 5.546875 -7.835938 6.210938 -7.765625 6.921875 -7.546875 C 7.628906 -7.328125 8.253906 -7.003906 8.796875 -6.578125 C 9.335938 -6.160156 9.671875 -5.722656 9.796875 -5.265625 C 9.835938 -5.171875 9.847656 -5.097656 9.828125 -5.046875 C 9.804688 -4.984375 9.757812 -4.9375 9.6875 -4.90625 L 8.109375 -4.375 C 8.066406 -4.351562 8.03125 -4.351562 8 -4.375 C 7.9375 -4.382812 7.867188 -4.453125 7.796875 -4.578125 Z M 7.796875 -4.578125 "/></g></g></g><g fill="#0e100f" fill-opacity="1"><g transform="translate(171.185479, 275.56792)"><g><path d="M 5 -8.296875 C 5.132812 -8.273438 5.1875 -8.179688 5.15625 -8.015625 L 3.4375 0.328125 C 3.40625 0.460938 3.351562 0.550781 3.28125 0.59375 C 3.21875 0.632812 3.113281 0.640625 2.96875 0.609375 L 0.953125 0.203125 C 0.828125 0.171875 0.742188 0.125 0.703125 0.0625 C 0.671875 0.0078125 0.664062 -0.0703125 0.6875 -0.1875 L 2.40625 -8.546875 C 2.425781 -8.640625 2.460938 -8.703125 2.515625 -8.734375 C 2.566406 -8.773438 2.628906 -8.789062 2.703125 -8.78125 Z M 5 -8.296875 "/></g></g></g><g fill="#0e100f" fill-opacity="1"><g transform="translate(175.635598, 276.591048)"><g><path d="M 5.65625 -8.734375 C 6.332031 -8.671875 6.929688 -8.488281 7.453125 -8.1875 C 7.984375 -7.894531 8.398438 -7.519531 8.703125 -7.0625 C 9.015625 -6.601562 9.195312 -6.09375 9.25 -5.53125 C 9.257812 -5.425781 9.257812 -5.347656 9.25 -5.296875 C 9.238281 -5.222656 9.21875 -5.171875 9.1875 -5.140625 C 9.164062 -5.117188 9.117188 -5.109375 9.046875 -5.109375 L 6.890625 -5.203125 C 6.804688 -5.210938 6.75 -5.226562 6.71875 -5.25 C 6.695312 -5.28125 6.679688 -5.351562 6.671875 -5.46875 C 6.640625 -5.851562 6.535156 -6.171875 6.359375 -6.421875 C 6.191406 -6.671875 5.914062 -6.816406 5.53125 -6.859375 C 5.0625 -6.910156 4.671875 -6.734375 4.359375 -6.328125 C 4.046875 -5.929688 3.84375 -5.25 3.75 -4.28125 C 3.644531 -3.300781 3.691406 -2.585938 3.890625 -2.140625 C 4.097656 -1.703125 4.457031 -1.457031 4.96875 -1.40625 C 5.40625 -1.363281 5.789062 -1.4375 6.125 -1.625 C 6.457031 -1.8125 6.75 -2.15625 7 -2.65625 C 7.03125 -2.71875 7.101562 -2.742188 7.21875 -2.734375 C 7.269531 -2.734375 7.316406 -2.722656 7.359375 -2.703125 L 8.84375 -2.25 C 8.96875 -2.1875 9.019531 -2.082031 9 -1.9375 C 8.976562 -1.707031 8.800781 -1.367188 8.46875 -0.921875 C 8.144531 -0.484375 7.660156 -0.0976562 7.015625 0.234375 C 6.378906 0.566406 5.597656 0.6875 4.671875 0.59375 C 3.816406 0.507812 3.082031 0.226562 2.46875 -0.25 C 1.851562 -0.738281 1.40625 -1.359375 1.125 -2.109375 C 0.84375 -2.867188 0.75 -3.710938 0.84375 -4.640625 C 0.9375 -5.554688 1.195312 -6.335938 1.625 -6.984375 C 2.050781 -7.640625 2.609375 -8.117188 3.296875 -8.421875 C 3.992188 -8.722656 4.78125 -8.828125 5.65625 -8.734375 Z M 5.65625 -8.734375 "/></g></g></g><g fill="#0e100f" fill-opacity="1"><g transform="translate(185.101315, 277.384326)"><g/></g></g><g fill="#0e100f" fill-opacity="1"><g transform="translate(187.973087, 277.533122)"><g><path d="M 5.578125 -7.125 C 5.367188 -7.332031 5.144531 -7.484375 4.90625 -7.578125 C 4.664062 -7.671875 4.332031 -7.703125 3.90625 -7.671875 C 3.476562 -7.640625 3.164062 -7.550781 2.96875 -7.40625 C 2.78125 -7.269531 2.691406 -7.117188 2.703125 -6.953125 C 2.722656 -6.648438 3 -6.460938 3.53125 -6.390625 L 5.609375 -6.015625 C 6.378906 -5.867188 6.972656 -5.578125 7.390625 -5.140625 C 7.804688 -4.703125 8.035156 -4.15625 8.078125 -3.5 C 8.128906 -2.894531 8.007812 -2.351562 7.71875 -1.875 C 7.425781 -1.394531 6.992188 -1.007812 6.421875 -0.71875 C 5.847656 -0.4375 5.160156 -0.265625 4.359375 -0.203125 C 3.460938 -0.128906 2.628906 -0.21875 1.859375 -0.46875 C 1.097656 -0.71875 0.554688 -1.070312 0.234375 -1.53125 C 0.179688 -1.601562 0.15625 -1.660156 0.15625 -1.703125 C 0.144531 -1.785156 0.1875 -1.863281 0.28125 -1.9375 L 1.484375 -2.90625 C 1.566406 -2.96875 1.644531 -3 1.71875 -3 C 1.8125 -3.007812 1.890625 -2.984375 1.953125 -2.921875 C 2.253906 -2.578125 2.550781 -2.34375 2.84375 -2.21875 C 3.144531 -2.09375 3.535156 -2.050781 4.015625 -2.09375 C 4.472656 -2.125 4.828125 -2.210938 5.078125 -2.359375 C 5.335938 -2.503906 5.457031 -2.6875 5.4375 -2.90625 C 5.425781 -3.0625 5.347656 -3.1875 5.203125 -3.28125 C 5.066406 -3.382812 4.875 -3.457031 4.625 -3.5 L 2.71875 -3.8125 C 1.96875 -3.945312 1.351562 -4.242188 0.875 -4.703125 C 0.40625 -5.171875 0.148438 -5.726562 0.109375 -6.375 C 0.0664062 -6.914062 0.179688 -7.414062 0.453125 -7.875 C 0.734375 -8.34375 1.148438 -8.722656 1.703125 -9.015625 C 2.265625 -9.316406 2.921875 -9.5 3.671875 -9.5625 C 4.410156 -9.613281 5.101562 -9.539062 5.75 -9.34375 C 6.40625 -9.15625 6.882812 -8.875 7.1875 -8.5 C 7.257812 -8.4375 7.296875 -8.375 7.296875 -8.3125 C 7.304688 -8.25 7.28125 -8.1875 7.21875 -8.125 L 5.953125 -7.0625 C 5.910156 -7.019531 5.867188 -7 5.828125 -7 C 5.765625 -7 5.679688 -7.039062 5.578125 -7.125 Z M 5.578125 -7.125 "/></g></g></g><g fill="#0e100f" fill-opacity="1"><g transform="translate(197.219724, 276.801592)"><g><path d="M -1.5 -8.75 C -1.507812 -8.820312 -1.492188 -8.890625 -1.453125 -8.953125 C -1.421875 -9.015625 -1.351562 -9.054688 -1.25 -9.078125 L 5.96875 -10.609375 C 6.0625 -10.617188 6.132812 -10.601562 6.1875 -10.5625 C 6.25 -10.53125 6.285156 -10.476562 6.296875 -10.40625 L 6.609375 -8.96875 C 6.640625 -8.8125 6.570312 -8.710938 6.40625 -8.671875 L 4.265625 -8.21875 C 4.171875 -8.195312 4.128906 -8.148438 4.140625 -8.078125 L 5.546875 -1.453125 C 5.566406 -1.367188 5.5625 -1.296875 5.53125 -1.234375 C 5.5 -1.179688 5.445312 -1.148438 5.375 -1.140625 L 3.09375 -0.65625 C 2.945312 -0.625 2.859375 -0.691406 2.828125 -0.859375 L 1.421875 -7.4375 C 1.398438 -7.550781 1.34375 -7.597656 1.25 -7.578125 L -0.875 -7.125 C -1.050781 -7.09375 -1.15625 -7.15625 -1.1875 -7.3125 Z M -1.5 -8.75 "/></g></g></g><g fill="#0e100f" fill-opacity="1"><g transform="translate(206.365281, 274.849018)"><g><path d="M 4.5625 -1.53125 C 3.71875 -1.21875 2.914062 -1.125 2.15625 -1.25 C 1.40625 -1.382812 0.738281 -1.71875 0.15625 -2.25 C -0.425781 -2.789062 -0.878906 -3.503906 -1.203125 -4.390625 C -1.523438 -5.285156 -1.632812 -6.128906 -1.53125 -6.921875 C -1.4375 -7.710938 -1.144531 -8.40625 -0.65625 -9 C -0.164062 -9.601562 0.492188 -10.054688 1.328125 -10.359375 C 2.160156 -10.660156 2.957031 -10.738281 3.71875 -10.59375 C 4.476562 -10.457031 5.148438 -10.117188 5.734375 -9.578125 C 6.328125 -9.046875 6.785156 -8.332031 7.109375 -7.4375 C 7.429688 -6.5625 7.546875 -5.726562 7.453125 -4.9375 C 7.359375 -4.144531 7.0625 -3.453125 6.5625 -2.859375 C 6.070312 -2.273438 5.40625 -1.832031 4.5625 -1.53125 Z M 3.890625 -3.34375 C 4.234375 -3.46875 4.476562 -3.648438 4.625 -3.890625 C 4.769531 -4.128906 4.816406 -4.445312 4.765625 -4.84375 C 4.722656 -5.25 4.585938 -5.765625 4.359375 -6.390625 C 4.003906 -7.347656 3.644531 -7.992188 3.28125 -8.328125 C 2.914062 -8.671875 2.484375 -8.753906 1.984375 -8.578125 C 1.484375 -8.390625 1.195312 -8.046875 1.125 -7.546875 C 1.0625 -7.054688 1.207031 -6.332031 1.5625 -5.375 C 1.789062 -4.75 2.019531 -4.265625 2.25 -3.921875 C 2.476562 -3.585938 2.722656 -3.375 2.984375 -3.28125 C 3.242188 -3.195312 3.546875 -3.21875 3.890625 -3.34375 Z M 3.890625 -3.34375 "/></g></g></g><g fill="#0e100f" fill-opacity="1"><g transform="translate(216.01621, 271.245835)"><g><path d="M 7.40625 -4.453125 C 7.445312 -4.429688 7.476562 -4.398438 7.5 -4.359375 C 7.539062 -4.285156 7.550781 -4.21875 7.53125 -4.15625 C 7.507812 -4.09375 7.46875 -4.046875 7.40625 -4.015625 L 5.296875 -2.875 C 5.148438 -2.789062 5.015625 -2.816406 4.890625 -2.953125 L 2.34375 -5.171875 C 2.289062 -5.222656 2.234375 -5.25 2.171875 -5.25 C 2.109375 -5.257812 2.023438 -5.238281 1.921875 -5.1875 L 1.421875 -4.90625 C 1.378906 -4.882812 1.351562 -4.851562 1.34375 -4.8125 C 1.332031 -4.769531 1.332031 -4.738281 1.34375 -4.71875 L 2.84375 -1.953125 C 2.90625 -1.835938 2.921875 -1.738281 2.890625 -1.65625 C 2.867188 -1.582031 2.796875 -1.507812 2.671875 -1.4375 L 0.859375 -0.46875 C 0.742188 -0.40625 0.65625 -0.382812 0.59375 -0.40625 C 0.53125 -0.425781 0.46875 -0.488281 0.40625 -0.59375 L -3.65625 -8.109375 C -3.738281 -8.273438 -3.710938 -8.394531 -3.578125 -8.46875 L 0.046875 -10.421875 C 1.097656 -10.992188 2.019531 -11.234375 2.8125 -11.140625 C 3.601562 -11.046875 4.195312 -10.632812 4.59375 -9.90625 C 4.863281 -9.40625 4.96875 -8.890625 4.90625 -8.359375 C 4.851562 -7.828125 4.664062 -7.367188 4.34375 -6.984375 C 4.3125 -6.941406 4.3125 -6.894531 4.34375 -6.84375 C 4.351562 -6.820312 4.375 -6.789062 4.40625 -6.75 Z M 1.671875 -7.125 C 1.953125 -7.28125 2.128906 -7.46875 2.203125 -7.6875 C 2.285156 -7.90625 2.257812 -8.132812 2.125 -8.375 C 1.988281 -8.632812 1.789062 -8.789062 1.53125 -8.84375 C 1.269531 -8.90625 1.007812 -8.867188 0.75 -8.734375 L -0.21875 -8.203125 C -0.300781 -8.160156 -0.351562 -8.113281 -0.375 -8.0625 C -0.40625 -8.007812 -0.398438 -7.941406 -0.359375 -7.859375 L 0.28125 -6.6875 C 0.332031 -6.601562 0.378906 -6.550781 0.421875 -6.53125 C 0.472656 -6.507812 0.535156 -6.515625 0.609375 -6.546875 Z M 1.671875 -7.125 "/></g></g></g><g fill="#0e100f" fill-opacity="1"><g transform="translate(224.552799, 266.546693)"><g><path d="M -4.703125 -7.53125 C -4.816406 -7.675781 -4.8125 -7.796875 -4.6875 -7.890625 L 0.6875 -11.8125 C 0.8125 -11.90625 0.921875 -11.882812 1.015625 -11.75 L 1.859375 -10.578125 C 1.984375 -10.398438 1.960938 -10.25 1.796875 -10.125 L -1.203125 -7.9375 C -1.347656 -7.832031 -1.375 -7.71875 -1.28125 -7.59375 L -0.671875 -6.75 C -0.617188 -6.6875 -0.5625 -6.644531 -0.5 -6.625 C -0.445312 -6.601562 -0.394531 -6.613281 -0.34375 -6.65625 L 1.453125 -7.96875 C 1.585938 -8.070312 1.703125 -8.0625 1.796875 -7.9375 L 2.703125 -6.703125 C 2.785156 -6.585938 2.769531 -6.488281 2.65625 -6.40625 L 0.8125 -5.046875 C 0.757812 -5.015625 0.726562 -4.972656 0.71875 -4.921875 C 0.71875 -4.878906 0.734375 -4.835938 0.765625 -4.796875 L 1.484375 -3.796875 C 1.523438 -3.742188 1.5625 -3.710938 1.59375 -3.703125 C 1.625 -3.691406 1.664062 -3.707031 1.71875 -3.75 L 4.9375 -6.109375 C 5.082031 -6.210938 5.203125 -6.203125 5.296875 -6.078125 L 6.1875 -4.859375 C 6.238281 -4.785156 6.257812 -4.710938 6.25 -4.640625 C 6.238281 -4.578125 6.191406 -4.515625 6.109375 -4.453125 L 0.78125 -0.578125 C 0.675781 -0.492188 0.59375 -0.457031 0.53125 -0.46875 C 0.46875 -0.476562 0.398438 -0.53125 0.328125 -0.625 Z M -4.703125 -7.53125 "/></g></g></g><g fill="#0e100f" fill-opacity="1"><g transform="translate(127.000537, 171.170562)"><g><path d="M 6.09375 -6.6875 C 5.894531 -6.90625 5.679688 -7.070312 5.453125 -7.1875 C 5.222656 -7.300781 4.894531 -7.359375 4.46875 -7.359375 C 4.039062 -7.359375 3.722656 -7.296875 3.515625 -7.171875 C 3.316406 -7.046875 3.21875 -6.898438 3.21875 -6.734375 C 3.21875 -6.429688 3.476562 -6.222656 4 -6.109375 L 6.046875 -5.578125 C 6.796875 -5.378906 7.359375 -5.046875 7.734375 -4.578125 C 8.117188 -4.109375 8.3125 -3.546875 8.3125 -2.890625 C 8.3125 -2.273438 8.148438 -1.738281 7.828125 -1.28125 C 7.503906 -0.832031 7.046875 -0.484375 6.453125 -0.234375 C 5.859375 0.00390625 5.160156 0.125 4.359375 0.125 C 3.460938 0.125 2.640625 -0.0234375 1.890625 -0.328125 C 1.148438 -0.628906 0.632812 -1.019531 0.34375 -1.5 C 0.300781 -1.582031 0.28125 -1.644531 0.28125 -1.6875 C 0.28125 -1.769531 0.328125 -1.84375 0.421875 -1.90625 L 1.6875 -2.78125 C 1.78125 -2.84375 1.863281 -2.875 1.9375 -2.875 C 2.03125 -2.875 2.101562 -2.835938 2.15625 -2.765625 C 2.4375 -2.398438 2.71875 -2.144531 3 -2 C 3.289062 -1.851562 3.675781 -1.78125 4.15625 -1.78125 C 4.613281 -1.78125 4.972656 -1.84375 5.234375 -1.96875 C 5.503906 -2.09375 5.640625 -2.265625 5.640625 -2.484375 C 5.640625 -2.640625 5.570312 -2.773438 5.4375 -2.890625 C 5.3125 -3.003906 5.125 -3.09375 4.875 -3.15625 L 3 -3.609375 C 2.257812 -3.796875 1.671875 -4.132812 1.234375 -4.625 C 0.796875 -5.125 0.578125 -5.695312 0.578125 -6.34375 C 0.578125 -6.882812 0.734375 -7.378906 1.046875 -7.828125 C 1.359375 -8.273438 1.800781 -8.625 2.375 -8.875 C 2.957031 -9.132812 3.625 -9.265625 4.375 -9.265625 C 5.113281 -9.265625 5.800781 -9.144531 6.4375 -8.90625 C 7.070312 -8.664062 7.523438 -8.34375 7.796875 -7.9375 C 7.859375 -7.863281 7.890625 -7.796875 7.890625 -7.734375 C 7.890625 -7.671875 7.859375 -7.613281 7.796875 -7.5625 L 6.453125 -6.59375 C 6.410156 -6.5625 6.367188 -6.546875 6.328125 -6.546875 C 6.265625 -6.546875 6.1875 -6.59375 6.09375 -6.6875 Z M 6.09375 -6.6875 "/></g></g></g><g fill="#0e100f" fill-opacity="1"><g transform="translate(135.642576, 171.170562)"><g><path d="M 3.21875 -9.140625 C 3.363281 -9.140625 3.4375 -9.054688 3.4375 -8.890625 L 3.4375 -0.359375 C 3.4375 -0.222656 3.40625 -0.128906 3.34375 -0.078125 C 3.28125 -0.0234375 3.175781 0 3.03125 0 L 0.96875 0 C 0.84375 0 0.753906 -0.0195312 0.703125 -0.0625 C 0.660156 -0.113281 0.640625 -0.195312 0.640625 -0.3125 L 0.640625 -8.859375 C 0.640625 -8.953125 0.660156 -9.019531 0.703125 -9.0625 C 0.742188 -9.113281 0.800781 -9.140625 0.875 -9.140625 Z M 3.21875 -9.140625 "/></g></g></g><g fill="#0e100f" fill-opacity="1"><g transform="translate(139.723192, 171.170562)"><g><path d="M 8.5625 -9.140625 C 8.675781 -9.140625 8.734375 -9.070312 8.734375 -8.9375 L 8.734375 -0.21875 C 8.734375 -0.15625 8.707031 -0.101562 8.65625 -0.0625 C 8.601562 -0.0195312 8.535156 0 8.453125 0 L 6.765625 0 C 6.691406 0 6.628906 -0.0078125 6.578125 -0.03125 C 6.535156 -0.0625 6.488281 -0.113281 6.4375 -0.1875 L 3.046875 -4.78125 C 3.015625 -4.820312 2.984375 -4.835938 2.953125 -4.828125 C 2.929688 -4.816406 2.921875 -4.796875 2.921875 -4.765625 L 2.921875 -0.265625 C 2.929688 -0.171875 2.910156 -0.101562 2.859375 -0.0625 C 2.816406 -0.0195312 2.738281 0 2.625 0 L 0.953125 0 C 0.742188 0 0.640625 -0.0820312 0.640625 -0.25 L 0.640625 -8.859375 C 0.640625 -9.046875 0.726562 -9.140625 0.90625 -9.140625 L 2.921875 -9.140625 C 3.023438 -9.140625 3.101562 -9.125 3.15625 -9.09375 C 3.21875 -9.070312 3.28125 -9.015625 3.34375 -8.921875 L 6.296875 -4.8125 C 6.347656 -4.738281 6.394531 -4.703125 6.4375 -4.703125 C 6.476562 -4.703125 6.5 -4.753906 6.5 -4.859375 L 6.5 -8.890625 C 6.5 -9.054688 6.585938 -9.140625 6.765625 -9.140625 Z M 8.5625 -9.140625 "/></g></g></g><g fill="#0e100f" fill-opacity="1"><g transform="translate(149.104919, 171.170562)"><g><path d="M 4.75 -9.265625 C 5.425781 -9.265625 6.039062 -9.144531 6.59375 -8.90625 C 7.144531 -8.664062 7.597656 -8.332031 7.953125 -7.90625 C 8.304688 -7.476562 8.535156 -6.988281 8.640625 -6.4375 C 8.660156 -6.332031 8.671875 -6.253906 8.671875 -6.203125 C 8.671875 -6.128906 8.65625 -6.078125 8.625 -6.046875 C 8.601562 -6.023438 8.554688 -6.007812 8.484375 -6 L 6.328125 -5.875 C 6.242188 -5.875 6.1875 -5.882812 6.15625 -5.90625 C 6.132812 -5.9375 6.113281 -6.003906 6.09375 -6.109375 C 6.019531 -6.492188 5.882812 -6.800781 5.6875 -7.03125 C 5.488281 -7.257812 5.195312 -7.375 4.8125 -7.375 C 4.332031 -7.375 3.957031 -7.160156 3.6875 -6.734375 C 3.425781 -6.304688 3.296875 -5.609375 3.296875 -4.640625 C 3.296875 -3.648438 3.414062 -2.945312 3.65625 -2.53125 C 3.90625 -2.113281 4.289062 -1.90625 4.8125 -1.90625 C 5.25 -1.90625 5.617188 -2.015625 5.921875 -2.234375 C 6.234375 -2.453125 6.488281 -2.820312 6.6875 -3.34375 C 6.71875 -3.414062 6.789062 -3.453125 6.90625 -3.453125 C 6.957031 -3.453125 7.003906 -3.445312 7.046875 -3.4375 L 8.578125 -3.125 C 8.703125 -3.082031 8.765625 -2.988281 8.765625 -2.84375 C 8.765625 -2.613281 8.625 -2.257812 8.34375 -1.78125 C 8.0625 -1.300781 7.617188 -0.863281 7.015625 -0.46875 C 6.410156 -0.0703125 5.644531 0.125 4.71875 0.125 C 3.851562 0.125 3.085938 -0.0820312 2.421875 -0.5 C 1.765625 -0.914062 1.257812 -1.484375 0.90625 -2.203125 C 0.550781 -2.929688 0.375 -3.765625 0.375 -4.703125 C 0.375 -5.617188 0.550781 -6.421875 0.90625 -7.109375 C 1.257812 -7.804688 1.765625 -8.335938 2.421875 -8.703125 C 3.085938 -9.078125 3.863281 -9.265625 4.75 -9.265625 Z M 4.75 -9.265625 "/></g></g></g><g fill="#0e100f" fill-opacity="1"><g transform="translate(158.19076, 171.170562)"><g><path d="M 0.640625 -8.859375 C 0.640625 -9.046875 0.71875 -9.140625 0.875 -9.140625 L 7.53125 -9.140625 C 7.675781 -9.140625 7.75 -9.054688 7.75 -8.890625 L 7.734375 -7.453125 C 7.734375 -7.234375 7.628906 -7.125 7.421875 -7.125 L 3.71875 -7.125 C 3.53125 -7.125 3.4375 -7.046875 3.4375 -6.890625 L 3.4375 -5.84375 C 3.4375 -5.757812 3.457031 -5.691406 3.5 -5.640625 C 3.539062 -5.597656 3.59375 -5.578125 3.65625 -5.578125 L 5.875 -5.578125 C 6.050781 -5.578125 6.140625 -5.5 6.140625 -5.34375 L 6.140625 -3.8125 C 6.140625 -3.664062 6.066406 -3.59375 5.921875 -3.59375 L 3.640625 -3.59375 C 3.578125 -3.59375 3.523438 -3.578125 3.484375 -3.546875 C 3.453125 -3.515625 3.4375 -3.472656 3.4375 -3.421875 L 3.4375 -2.1875 C 3.4375 -2.125 3.445312 -2.078125 3.46875 -2.046875 C 3.488281 -2.023438 3.53125 -2.015625 3.59375 -2.015625 L 7.59375 -2.015625 C 7.769531 -2.015625 7.859375 -1.9375 7.859375 -1.78125 L 7.859375 -0.265625 C 7.859375 -0.179688 7.832031 -0.113281 7.78125 -0.0625 C 7.738281 -0.0195312 7.664062 0 7.5625 0 L 0.96875 0 C 0.84375 0 0.753906 -0.0195312 0.703125 -0.0625 C 0.660156 -0.113281 0.640625 -0.195312 0.640625 -0.3125 Z M 0.640625 -8.859375 "/></g></g></g><g fill="#0e100f" fill-opacity="1"><g transform="translate(212.094106, 171.170562)"><g><path d="M 5.984375 -2.015625 C 6.179688 -2.015625 6.28125 -1.9375 6.28125 -1.78125 L 6.28125 -0.265625 C 6.28125 -0.179688 6.25 -0.113281 6.1875 -0.0625 C 6.132812 -0.0195312 6.0625 0 5.96875 0 L 0.734375 0 C 0.535156 0 0.4375 -0.0859375 0.4375 -0.265625 L 0.4375 -1.78125 C 0.4375 -1.9375 0.523438 -2.015625 0.703125 -2.015625 L 1.796875 -2.015625 C 1.835938 -2.015625 1.875 -2.023438 1.90625 -2.046875 C 1.9375 -2.066406 1.953125 -2.09375 1.953125 -2.125 L 1.953125 -6.25 C 1.953125 -6.320312 1.9375 -6.367188 1.90625 -6.390625 C 1.875 -6.421875 1.816406 -6.425781 1.734375 -6.40625 L 0.75 -6.1875 C 0.726562 -6.175781 0.691406 -6.171875 0.640625 -6.171875 C 0.492188 -6.171875 0.421875 -6.269531 0.421875 -6.46875 L 0.421875 -7.515625 C 0.421875 -7.609375 0.429688 -7.675781 0.453125 -7.71875 C 0.484375 -7.769531 0.546875 -7.816406 0.640625 -7.859375 L 2.859375 -8.96875 C 2.992188 -9.039062 3.101562 -9.085938 3.1875 -9.109375 C 3.269531 -9.128906 3.363281 -9.140625 3.46875 -9.140625 L 4.53125 -9.140625 C 4.59375 -9.140625 4.644531 -9.117188 4.6875 -9.078125 C 4.726562 -9.035156 4.75 -8.972656 4.75 -8.890625 L 4.75 -2.171875 C 4.75 -2.066406 4.789062 -2.015625 4.875 -2.015625 Z M 5.984375 -2.015625 "/></g></g></g><g fill="#0e100f" fill-opacity="1"><g transform="translate(218.714327, 171.170562)"><g><path d="M 4.046875 0.09375 C 3.460938 0.09375 2.925781 -0.0078125 2.4375 -0.21875 C 1.957031 -0.425781 1.570312 -0.679688 1.28125 -0.984375 C 0.988281 -1.296875 0.820312 -1.59375 0.78125 -1.875 C 0.769531 -1.894531 0.765625 -1.929688 0.765625 -1.984375 C 0.765625 -2.097656 0.816406 -2.171875 0.921875 -2.203125 L 2.6875 -2.71875 C 2.707031 -2.726562 2.726562 -2.734375 2.75 -2.734375 C 2.820312 -2.734375 2.875 -2.707031 2.90625 -2.65625 C 2.9375 -2.601562 2.953125 -2.570312 2.953125 -2.5625 C 3.117188 -2.300781 3.273438 -2.109375 3.421875 -1.984375 C 3.578125 -1.859375 3.785156 -1.796875 4.046875 -1.796875 C 4.484375 -1.796875 4.832031 -1.957031 5.09375 -2.28125 C 5.351562 -2.601562 5.484375 -3.03125 5.484375 -3.5625 C 5.484375 -3.664062 5.472656 -3.738281 5.453125 -3.78125 C 5.441406 -3.832031 5.410156 -3.859375 5.359375 -3.859375 C 5.304688 -3.859375 5.242188 -3.84375 5.171875 -3.8125 C 4.867188 -3.6875 4.609375 -3.597656 4.390625 -3.546875 C 4.171875 -3.492188 3.90625 -3.46875 3.59375 -3.46875 C 2.96875 -3.46875 2.40625 -3.582031 1.90625 -3.8125 C 1.414062 -4.039062 1.03125 -4.363281 0.75 -4.78125 C 0.46875 -5.195312 0.328125 -5.664062 0.328125 -6.1875 C 0.328125 -6.757812 0.492188 -7.28125 0.828125 -7.75 C 1.171875 -8.21875 1.628906 -8.582031 2.203125 -8.84375 C 2.785156 -9.113281 3.4375 -9.25 4.15625 -9.25 C 4.988281 -9.25 5.710938 -9.0625 6.328125 -8.6875 C 6.953125 -8.320312 7.429688 -7.800781 7.765625 -7.125 C 8.097656 -6.457031 8.265625 -5.6875 8.265625 -4.8125 C 8.265625 -3.800781 8.085938 -2.925781 7.734375 -2.1875 C 7.378906 -1.445312 6.878906 -0.878906 6.234375 -0.484375 C 5.597656 -0.0976562 4.867188 0.09375 4.046875 0.09375 Z M 4.234375 -5.234375 C 4.429688 -5.234375 4.632812 -5.265625 4.84375 -5.328125 C 5.0625 -5.398438 5.226562 -5.476562 5.34375 -5.5625 C 5.382812 -5.601562 5.414062 -5.644531 5.4375 -5.6875 C 5.457031 -5.726562 5.46875 -5.800781 5.46875 -5.90625 C 5.46875 -6.382812 5.351562 -6.765625 5.125 -7.046875 C 4.90625 -7.328125 4.613281 -7.46875 4.25 -7.46875 C 3.925781 -7.46875 3.648438 -7.359375 3.421875 -7.140625 C 3.203125 -6.921875 3.09375 -6.640625 3.09375 -6.296875 C 3.09375 -5.960938 3.203125 -5.703125 3.421875 -5.515625 C 3.648438 -5.328125 3.921875 -5.234375 4.234375 -5.234375 Z M 4.234375 -5.234375 "/></g></g></g><g fill="#0e100f" fill-opacity="1"><g transform="translate(227.356367, 171.170562)"><g><path d="M 4.171875 -9.265625 C 4.847656 -9.265625 5.460938 -9.148438 6.015625 -8.921875 C 6.578125 -8.703125 7.015625 -8.394531 7.328125 -8 C 7.640625 -7.613281 7.796875 -7.179688 7.796875 -6.703125 C 7.796875 -6.378906 7.695312 -6.082031 7.5 -5.8125 C 7.3125 -5.550781 7.03125 -5.332031 6.65625 -5.15625 C 6.582031 -5.113281 6.546875 -5.078125 6.546875 -5.046875 C 6.546875 -5.003906 6.578125 -4.957031 6.640625 -4.90625 C 7.242188 -4.539062 7.65625 -4.191406 7.875 -3.859375 C 8.09375 -3.523438 8.203125 -3.140625 8.203125 -2.703125 C 8.203125 -2.109375 8.03125 -1.597656 7.6875 -1.171875 C 7.34375 -0.753906 6.863281 -0.429688 6.25 -0.203125 C 5.632812 0.015625 4.921875 0.125 4.109375 0.125 C 2.984375 0.125 2.070312 -0.0820312 1.375 -0.5 C 0.6875 -0.914062 0.34375 -1.5 0.34375 -2.25 C 0.34375 -2.65625 0.445312 -3.007812 0.65625 -3.3125 C 0.863281 -3.613281 1.238281 -3.898438 1.78125 -4.171875 C 1.84375 -4.203125 1.875 -4.234375 1.875 -4.265625 C 1.875 -4.296875 1.847656 -4.328125 1.796875 -4.359375 C 1.523438 -4.578125 1.3125 -4.757812 1.15625 -4.90625 C 1 -5.0625 0.863281 -5.257812 0.75 -5.5 C 0.644531 -5.738281 0.59375 -6.019531 0.59375 -6.34375 C 0.59375 -6.875 0.734375 -7.363281 1.015625 -7.8125 C 1.304688 -8.257812 1.722656 -8.613281 2.265625 -8.875 C 2.804688 -9.132812 3.441406 -9.265625 4.171875 -9.265625 Z M 4.234375 -7.484375 C 3.929688 -7.484375 3.679688 -7.410156 3.484375 -7.265625 C 3.285156 -7.128906 3.1875 -6.941406 3.1875 -6.703125 C 3.1875 -6.535156 3.238281 -6.390625 3.34375 -6.265625 C 3.445312 -6.148438 3.59375 -6.054688 3.78125 -5.984375 L 4.578125 -5.71875 C 4.640625 -5.707031 4.691406 -5.703125 4.734375 -5.703125 C 4.929688 -5.703125 5.101562 -5.800781 5.25 -6 C 5.40625 -6.195312 5.484375 -6.398438 5.484375 -6.609375 C 5.484375 -6.847656 5.367188 -7.050781 5.140625 -7.21875 C 4.921875 -7.394531 4.617188 -7.484375 4.234375 -7.484375 Z M 4.28125 -1.671875 C 4.644531 -1.671875 4.925781 -1.738281 5.125 -1.875 C 5.332031 -2.007812 5.4375 -2.203125 5.4375 -2.453125 C 5.4375 -2.628906 5.378906 -2.785156 5.265625 -2.921875 C 5.160156 -3.054688 4.953125 -3.179688 4.640625 -3.296875 L 3.765625 -3.59375 C 3.691406 -3.625 3.617188 -3.640625 3.546875 -3.640625 C 3.328125 -3.640625 3.128906 -3.546875 2.953125 -3.359375 C 2.773438 -3.171875 2.6875 -2.945312 2.6875 -2.6875 C 2.6875 -2.351562 2.8125 -2.097656 3.0625 -1.921875 C 3.3125 -1.753906 3.71875 -1.671875 4.28125 -1.671875 Z M 4.28125 -1.671875 "/></g></g></g><g fill="#0e100f" fill-opacity="1"><g transform="translate(235.899778, 171.170562)"><g><path d="M 4.171875 -9.265625 C 4.847656 -9.265625 5.460938 -9.148438 6.015625 -8.921875 C 6.578125 -8.703125 7.015625 -8.394531 7.328125 -8 C 7.640625 -7.613281 7.796875 -7.179688 7.796875 -6.703125 C 7.796875 -6.378906 7.695312 -6.082031 7.5 -5.8125 C 7.3125 -5.550781 7.03125 -5.332031 6.65625 -5.15625 C 6.582031 -5.113281 6.546875 -5.078125 6.546875 -5.046875 C 6.546875 -5.003906 6.578125 -4.957031 6.640625 -4.90625 C 7.242188 -4.539062 7.65625 -4.191406 7.875 -3.859375 C 8.09375 -3.523438 8.203125 -3.140625 8.203125 -2.703125 C 8.203125 -2.109375 8.03125 -1.597656 7.6875 -1.171875 C 7.34375 -0.753906 6.863281 -0.429688 6.25 -0.203125 C 5.632812 0.015625 4.921875 0.125 4.109375 0.125 C 2.984375 0.125 2.070312 -0.0820312 1.375 -0.5 C 0.6875 -0.914062 0.34375 -1.5 0.34375 -2.25 C 0.34375 -2.65625 0.445312 -3.007812 0.65625 -3.3125 C 0.863281 -3.613281 1.238281 -3.898438 1.78125 -4.171875 C 1.84375 -4.203125 1.875 -4.234375 1.875 -4.265625 C 1.875 -4.296875 1.847656 -4.328125 1.796875 -4.359375 C 1.523438 -4.578125 1.3125 -4.757812 1.15625 -4.90625 C 1 -5.0625 0.863281 -5.257812 0.75 -5.5 C 0.644531 -5.738281 0.59375 -6.019531 0.59375 -6.34375 C 0.59375 -6.875 0.734375 -7.363281 1.015625 -7.8125 C 1.304688 -8.257812 1.722656 -8.613281 2.265625 -8.875 C 2.804688 -9.132812 3.441406 -9.265625 4.171875 -9.265625 Z M 4.234375 -7.484375 C 3.929688 -7.484375 3.679688 -7.410156 3.484375 -7.265625 C 3.285156 -7.128906 3.1875 -6.941406 3.1875 -6.703125 C 3.1875 -6.535156 3.238281 -6.390625 3.34375 -6.265625 C 3.445312 -6.148438 3.59375 -6.054688 3.78125 -5.984375 L 4.578125 -5.71875 C 4.640625 -5.707031 4.691406 -5.703125 4.734375 -5.703125 C 4.929688 -5.703125 5.101562 -5.800781 5.25 -6 C 5.40625 -6.195312 5.484375 -6.398438 5.484375 -6.609375 C 5.484375 -6.847656 5.367188 -7.050781 5.140625 -7.21875 C 4.921875 -7.394531 4.617188 -7.484375 4.234375 -7.484375 Z M 4.28125 -1.671875 C 4.644531 -1.671875 4.925781 -1.738281 5.125 -1.875 C 5.332031 -2.007812 5.4375 -2.203125 5.4375 -2.453125 C 5.4375 -2.628906 5.378906 -2.785156 5.265625 -2.921875 C 5.160156 -3.054688 4.953125 -3.179688 4.640625 -3.296875 L 3.765625 -3.59375 C 3.691406 -3.625 3.617188 -3.640625 3.546875 -3.640625 C 3.328125 -3.640625 3.128906 -3.546875 2.953125 -3.359375 C 2.773438 -3.171875 2.6875 -2.945312 2.6875 -2.6875 C 2.6875 -2.351562 2.8125 -2.097656 3.0625 -1.921875 C 3.3125 -1.753906 3.71875 -1.671875 4.28125 -1.671875 Z M 4.28125 -1.671875 "/></g></g></g></svg>