<svg xmlns="http://www.w3.org/2000/svg" xmlns:xlink="http://www.w3.org/1999/xlink" width="1920" zoomAndPan="magnify" viewBox="0 0 1440 809.999993" height="1080" preserveAspectRatio="xMidYMid meet" version="1.0"><defs><clipPath id="id1"><path d="M 507 170.644531 L 591 170.644531 L 591 255 L 507 255 Z M 507 170.644531 " clip-rule="nonzero"/></clipPath><clipPath id="id2"><path d="M 577 619 L 620 619 L 620 639.28125 L 577 639.28125 Z M 577 619 " clip-rule="nonzero"/></clipPath><clipPath id="id3"><path d="M 787 619 L 830 619 L 830 639.28125 L 787 639.28125 Z M 787 619 " clip-rule="nonzero"/></clipPath><clipPath id="id4"><path d="M 885 613 L 1018.691406 613 L 1018.691406 639.28125 L 885 639.28125 Z M 885 613 " clip-rule="nonzero"/></clipPath><clipPath id="id5"><path d="M 503 613 L 637 613 L 637 639.28125 L 503 639.28125 Z M 503 613 " clip-rule="nonzero"/></clipPath></defs><path fill="#50c4bc" d="M 684.421875 311.566406 C 684.042969 312.546875 684.53125 313.652344 685.511719 314.023438 C 686.5 314.402344 687.59375 313.914062 687.976562 312.925781 C 688.347656 311.945312 687.859375 310.847656 686.878906 310.46875 C 685.890625 310.097656 684.792969 310.585938 684.421875 311.566406 Z M 679.605469 319.433594 C 678.902344 320.222656 678.964844 321.421875 679.75 322.125 C 680.53125 322.828125 681.730469 322.761719 682.433594 321.980469 C 683.136719 321.199219 683.070312 319.992188 682.289062 319.296875 C 681.511719 318.59375 680.300781 318.652344 679.605469 319.433594 Z M 672.296875 325.074219 C 671.367188 325.554688 670.996094 326.703125 671.476562 327.640625 C 671.953125 328.570312 673.097656 328.945312 674.035156 328.460938 C 674.976562 327.976562 675.339844 326.832031 674.859375 325.902344 C 674.382812 324.960938 673.230469 324.597656 672.296875 325.074219 Z M 663.464844 327.714844 C 662.417969 327.832031 661.664062 328.773438 661.777344 329.8125 C 661.886719 330.863281 662.824219 331.613281 663.875 331.503906 C 664.914062 331.394531 665.675781 330.457031 665.5625 329.40625 C 665.445312 328.363281 664.507812 327.605469 663.464844 327.714844 Z M 654.261719 327.039062 C 653.246094 326.769531 652.207031 327.378906 651.9375 328.390625 C 651.675781 329.40625 652.28125 330.449219 653.296875 330.71875 C 654.308594 330.988281 655.351562 330.371094 655.621094 329.359375 C 655.882812 328.34375 655.277344 327.300781 654.261719 327.039062 Z M 645.917969 323.105469 C 645.0625 322.484375 643.878906 322.683594 643.261719 323.535156 C 642.648438 324.390625 642.84375 325.578125 643.699219 326.191406 C 644.554688 326.804688 645.738281 326.613281 646.355469 325.753906 C 646.96875 324.90625 646.773438 323.714844 645.917969 323.097656 Z M 639.53125 316.445312 C 638.949219 315.5625 637.769531 315.320312 636.894531 315.902344 C 636.019531 316.480469 635.777344 317.660156 636.347656 318.535156 C 636.929688 319.414062 638.109375 319.65625 638.992188 319.082031 C 639.867188 318.503906 640.109375 317.320312 639.53125 316.445312 Z M 635.941406 307.949219 C 635.714844 306.921875 634.699219 306.273438 633.679688 306.492188 C 632.652344 306.722656 632.003906 307.734375 632.222656 308.765625 C 632.449219 309.785156 633.464844 310.441406 634.492188 310.214844 C 635.515625 309.984375 636.164062 308.972656 635.941406 307.949219 Z M 635.632812 298.722656 C 635.785156 297.679688 635.066406 296.714844 634.03125 296.554688 C 632.988281 296.402344 632.023438 297.121094 631.871094 298.164062 C 631.710938 299.199219 632.429688 300.164062 633.472656 300.324219 C 634.507812 300.476562 635.480469 299.757812 635.632812 298.722656 Z M 638.632812 290 C 639.152344 289.089844 638.832031 287.921875 637.914062 287.40625 C 637.003906 286.886719 635.84375 287.210938 635.328125 288.121094 C 634.804688 289.039062 635.128906 290.199219 636.039062 290.71875 C 636.957031 291.234375 638.117188 290.917969 638.632812 290 Z M 644.566406 282.925781 C 645.375 282.257812 645.492188 281.0625 644.824219 280.246094 C 644.144531 279.441406 642.953125 279.324219 642.136719 279.992188 C 641.332031 280.660156 641.222656 281.863281 641.890625 282.671875 C 642.558594 283.484375 643.753906 283.59375 644.566406 282.925781 Z M 652.621094 278.441406 C 653.621094 278.101562 654.152344 277.023438 653.820312 276.03125 C 653.480469 275.03125 652.40625 274.5 651.40625 274.832031 C 650.410156 275.167969 649.878906 276.246094 650.210938 277.246094 C 650.550781 278.238281 651.625 278.777344 652.621094 278.441406 Z M 661.753906 277.140625 C 662.804688 277.183594 663.6875 276.363281 663.734375 275.3125 C 663.777344 274.265625 662.957031 273.378906 661.90625 273.339844 C 660.859375 273.292969 659.976562 274.113281 659.933594 275.160156 C 659.890625 276.210938 660.707031 277.101562 661.753906 277.140625 Z M 670.753906 279.179688 C 671.71875 279.59375 672.835938 279.152344 673.25 278.183594 C 673.664062 277.21875 673.222656 276.101562 672.257812 275.6875 C 671.289062 275.265625 670.171875 275.714844 669.757812 276.679688 C 669.339844 277.644531 669.785156 278.765625 670.753906 279.179688 Z M 678.417969 284.3125 C 679.171875 285.042969 680.378906 285.03125 681.109375 284.277344 C 681.839844 283.527344 681.828125 282.316406 681.074219 281.585938 C 680.324219 280.855469 679.117188 280.867188 678.382812 281.621094 C 677.652344 282.375 677.667969 283.582031 678.417969 284.3125 Z M 683.753906 291.84375 C 684.195312 292.792969 685.324219 293.207031 686.277344 292.765625 C 687.230469 292.324219 687.652344 291.195312 687.210938 290.242188 C 686.769531 289.289062 685.636719 288.875 684.683594 289.316406 C 683.726562 289.757812 683.3125 290.890625 683.753906 291.84375 Z M 686.035156 300.78125 C 686.105469 301.828125 687.007812 302.621094 688.058594 302.546875 C 689.105469 302.484375 689.898438 301.574219 689.832031 300.523438 C 689.761719 299.476562 688.851562 298.679688 687.800781 298.75 C 686.753906 298.820312 685.960938 299.730469 686.035156 300.78125 Z M 686.089844 302.492188 C 686.089844 303.539062 686.941406 304.394531 687.996094 304.394531 C 689.042969 304.394531 689.894531 303.539062 689.894531 302.492188 C 689.894531 301.441406 689.042969 300.585938 687.996094 300.585938 C 686.941406 300.585938 686.089844 301.441406 686.089844 302.492188 " fill-opacity="1" fill-rule="nonzero"/><path fill="#50c4bc" d="M 879.367188 255.652344 C 879.1875 256.6875 879.890625 257.667969 880.925781 257.839844 C 881.960938 258.011719 882.941406 257.3125 883.121094 256.277344 C 883.292969 255.242188 882.589844 254.265625 881.554688 254.085938 C 880.519531 253.910156 879.539062 254.609375 879.367188 255.652344 Z M 876.980469 264.988281 C 876.636719 265.984375 877.160156 267.066406 878.152344 267.410156 C 879.148438 267.757812 880.222656 267.230469 880.574219 266.238281 C 880.917969 265.242188 880.394531 264.160156 879.402344 263.816406 C 878.410156 263.46875 877.324219 263.996094 876.980469 264.988281 Z M 873.0625 273.800781 C 872.550781 274.726562 872.886719 275.878906 873.804688 276.390625 C 874.730469 276.894531 875.882812 276.554688 876.394531 275.636719 C 876.898438 274.710938 876.558594 273.558594 875.640625 273.054688 C 874.722656 272.546875 873.566406 272.882812 873.0625 273.800781 Z M 867.71875 281.84375 C 867.070312 282.664062 867.210938 283.863281 868.03125 284.511719 C 868.851562 285.160156 870.050781 285.023438 870.699219 284.203125 C 871.355469 283.382812 871.21875 282.179688 870.390625 281.53125 C 869.570312 280.875 868.367188 281.015625 867.71875 281.84375 Z M 861.125 288.882812 C 860.34375 289.585938 860.28125 290.785156 860.984375 291.566406 C 861.695312 292.347656 862.898438 292.40625 863.675781 291.703125 C 864.457031 291 864.519531 289.792969 863.816406 289.019531 C 863.109375 288.234375 861.902344 288.175781 861.125 288.882812 Z M 853.457031 294.726562 C 852.574219 295.292969 852.3125 296.472656 852.878906 297.355469 C 853.445312 298.238281 854.617188 298.503906 855.507812 297.9375 C 856.390625 297.371094 856.652344 296.195312 856.085938 295.308594 C 855.519531 294.421875 854.339844 294.160156 853.457031 294.726562 Z M 844.929688 299.21875 C 843.964844 299.628906 843.507812 300.746094 843.914062 301.710938 C 844.328125 302.675781 845.445312 303.132812 846.414062 302.726562 C 847.378906 302.3125 847.835938 301.195312 847.421875 300.226562 C 847.011719 299.261719 845.894531 298.804688 844.929688 299.21875 Z M 835.765625 302.214844 C 834.746094 302.457031 834.109375 303.484375 834.351562 304.507812 C 834.59375 305.527344 835.621094 306.164062 836.640625 305.921875 C 837.664062 305.679688 838.296875 304.652344 838.058594 303.628906 C 837.816406 302.609375 836.789062 301.972656 835.765625 302.214844 Z M 826.230469 303.636719 C 825.183594 303.707031 824.386719 304.609375 824.457031 305.660156 C 824.527344 306.707031 825.429688 307.507812 826.480469 307.4375 C 827.527344 307.371094 828.320312 306.464844 828.253906 305.417969 C 828.183594 304.367188 827.277344 303.566406 826.230469 303.636719 Z M 816.585938 303.464844 C 815.542969 303.359375 814.609375 304.125 814.5 305.167969 C 814.398438 306.21875 815.15625 307.148438 816.203125 307.253906 C 817.253906 307.355469 818.183594 306.597656 818.289062 305.546875 C 818.390625 304.507812 817.632812 303.574219 816.585938 303.464844 Z M 807.109375 301.703125 C 806.097656 301.421875 805.046875 302.015625 804.769531 303.03125 C 804.488281 304.042969 805.089844 305.09375 806.101562 305.367188 C 807.109375 305.652344 808.160156 305.050781 808.441406 304.042969 C 808.71875 303.03125 808.125 301.980469 807.109375 301.703125 Z M 798.058594 298.371094 C 797.105469 297.921875 795.972656 298.335938 795.53125 299.289062 C 795.082031 300.242188 795.496094 301.371094 796.449219 301.820312 C 797.402344 302.261719 798.535156 301.847656 798.976562 300.898438 C 799.425781 299.945312 799.011719 298.8125 798.058594 298.371094 Z M 789.6875 293.574219 C 788.824219 292.972656 787.640625 293.1875 787.046875 294.058594 C 786.445312 294.921875 786.664062 296.105469 787.527344 296.699219 C 788.390625 297.300781 789.578125 297.082031 790.179688 296.21875 C 790.769531 295.355469 790.558594 294.167969 789.6875 293.574219 Z M 782.234375 287.445312 C 781.484375 286.714844 780.277344 286.734375 779.546875 287.488281 C 778.8125 288.238281 778.835938 289.441406 779.585938 290.179688 C 780.339844 290.910156 781.546875 290.890625 782.277344 290.136719 C 783.007812 289.386719 782.988281 288.175781 782.234375 287.445312 Z M 775.902344 280.171875 C 775.28125 279.328125 774.085938 279.144531 773.246094 279.765625 C 772.398438 280.386719 772.210938 281.578125 772.832031 282.429688 C 773.460938 283.277344 774.644531 283.457031 775.496094 282.835938 C 776.34375 282.214844 776.523438 281.019531 775.902344 280.171875 Z M 770.863281 271.953125 C 770.390625 271.011719 769.242188 270.640625 768.304688 271.109375 C 767.367188 271.578125 766.992188 272.726562 767.464844 273.664062 C 767.9375 274.601562 769.078125 274.980469 770.015625 274.511719 C 770.953125 274.035156 771.335938 272.890625 770.859375 271.953125 Z M 767.269531 263.007812 C 766.960938 262 765.898438 261.441406 764.890625 261.746094 C 763.882812 262.054688 763.324219 263.117188 763.625 264.125 C 763.9375 265.125 765 265.691406 766.007812 265.390625 C 767.007812 265.078125 767.574219 264.015625 767.269531 263.007812 Z M 765.21875 253.585938 C 765.082031 252.546875 764.128906 251.808594 763.089844 251.945312 C 762.046875 252.082031 761.316406 253.035156 761.445312 254.078125 C 761.585938 255.121094 762.535156 255.851562 763.578125 255.71875 C 764.621094 255.582031 765.359375 254.628906 765.21875 253.585938 Z M 764.773438 243.945312 C 764.808594 242.898438 763.984375 242.015625 762.9375 241.980469 C 761.882812 241.9375 761.003906 242.757812 760.964844 243.816406 C 760.929688 244.863281 761.75 245.746094 762.796875 245.78125 C 763.847656 245.816406 764.730469 245.003906 764.773438 243.945312 Z M 765.910156 234.375 C 766.125 233.339844 765.457031 232.339844 764.425781 232.125 C 763.398438 231.917969 762.390625 232.578125 762.183594 233.609375 C 761.972656 234.636719 762.632812 235.644531 763.667969 235.851562 C 764.695312 236.066406 765.695312 235.402344 765.910156 234.375 Z M 768.636719 225.117188 C 769.015625 224.140625 768.53125 223.035156 767.554688 222.65625 C 766.574219 222.277344 765.46875 222.757812 765.089844 223.738281 C 764.710938 224.71875 765.191406 225.824219 766.171875 226.203125 C 767.152344 226.582031 768.257812 226.097656 768.636719 225.117188 Z M 772.878906 216.449219 C 773.417969 215.554688 773.121094 214.378906 772.21875 213.84375 C 771.320312 213.304688 770.148438 213.59375 769.609375 214.496094 C 769.070312 215.402344 769.367188 216.566406 770.265625 217.105469 C 771.167969 217.652344 772.335938 217.355469 772.871094 216.449219 Z M 778.496094 208.609375 C 779.179688 207.816406 779.082031 206.609375 778.28125 205.933594 C 777.480469 205.25 776.28125 205.347656 775.605469 206.148438 C 774.921875 206.949219 775.019531 208.148438 775.820312 208.824219 C 776.621094 209.507812 777.820312 209.410156 778.496094 208.609375 Z M 785.339844 201.820312 C 786.148438 201.144531 786.25 199.941406 785.574219 199.136719 C 784.898438 198.335938 783.699219 198.222656 782.898438 198.902344 C 782.089844 199.578125 781.988281 200.777344 782.664062 201.585938 C 783.339844 202.386719 784.539062 202.488281 785.339844 201.820312 Z M 793.214844 196.25 C 794.125 195.71875 794.429688 194.550781 793.890625 193.640625 C 793.359375 192.738281 792.191406 192.433594 791.289062 192.972656 C 790.386719 193.503906 790.082031 194.671875 790.613281 195.574219 C 791.144531 196.476562 792.308594 196.78125 793.214844 196.25 Z M 801.902344 192.074219 C 802.886719 191.703125 803.378906 190.597656 803.003906 189.617188 C 802.625 188.636719 801.527344 188.140625 800.546875 188.515625 C 799.5625 188.894531 799.070312 189.992188 799.445312 190.972656 C 799.824219 191.957031 800.921875 192.449219 801.902344 192.074219 Z M 811.167969 189.410156 C 812.195312 189.210938 812.863281 188.203125 812.664062 187.175781 C 812.457031 186.148438 811.457031 185.46875 810.429688 185.675781 C 809.394531 185.882812 808.726562 186.886719 808.933594 187.914062 C 809.132812 188.941406 810.132812 189.617188 811.167969 189.410156 Z M 820.75 188.335938 C 821.800781 188.308594 822.628906 187.429688 822.59375 186.375 C 822.566406 185.324219 821.691406 184.496094 820.640625 184.53125 C 819.59375 184.558594 818.765625 185.4375 818.792969 186.484375 C 818.820312 187.539062 819.695312 188.363281 820.75 188.335938 Z M 830.382812 188.851562 C 831.417969 188.996094 832.378906 188.265625 832.523438 187.222656 C 832.667969 186.179688 831.9375 185.222656 830.902344 185.082031 C 829.859375 184.9375 828.902344 185.664062 828.757812 186.707031 C 828.609375 187.746094 829.34375 188.707031 830.382812 188.851562 Z M 839.789062 190.964844 C 840.789062 191.273438 841.859375 190.714844 842.167969 189.714844 C 842.488281 188.714844 841.933594 187.644531 840.925781 187.328125 C 839.925781 187.015625 838.859375 187.574219 838.539062 188.574219 C 838.230469 189.578125 838.78125 190.644531 839.789062 190.964844 Z M 848.710938 194.621094 C 849.648438 195.097656 850.792969 194.730469 851.269531 193.792969 C 851.746094 192.855469 851.382812 191.710938 850.441406 191.234375 C 849.511719 190.757812 848.367188 191.121094 847.882812 192.0625 C 847.40625 192.992188 847.773438 194.136719 848.710938 194.621094 Z M 856.902344 199.722656 C 857.742188 200.351562 858.9375 200.175781 859.5625 199.328125 C 860.191406 198.488281 860.011719 197.300781 859.171875 196.664062 C 858.328125 196.042969 857.136719 196.214844 856.507812 197.058594 C 855.878906 197.898438 856.058594 199.09375 856.902344 199.722656 Z M 864.125 206.105469 C 864.855469 206.863281 866.058594 206.890625 866.816406 206.167969 C 867.574219 205.4375 867.601562 204.234375 866.871094 203.476562 L 866.878906 203.476562 C 866.148438 202.71875 864.945312 202.6875 864.1875 203.414062 C 863.429688 204.144531 863.402344 205.347656 864.125 206.105469 Z M 870.199219 213.601562 C 870.789062 214.46875 871.96875 214.699219 872.839844 214.105469 C 873.710938 213.511719 873.9375 212.332031 873.34375 211.460938 C 872.75 210.589844 871.570312 210.363281 870.699219 210.957031 C 869.832031 211.550781 869.605469 212.730469 870.199219 213.601562 Z M 874.9375 222 C 875.371094 222.953125 876.503906 223.371094 877.457031 222.929688 C 878.414062 222.496094 878.828125 221.363281 878.394531 220.414062 C 877.953125 219.460938 876.828125 219.039062 875.867188 219.472656 C 874.917969 219.914062 874.496094 221.039062 874.9375 222 Z M 878.203125 231.066406 C 878.476562 232.082031 879.519531 232.691406 880.535156 232.414062 C 881.546875 232.144531 882.148438 231.101562 881.878906 230.089844 C 881.601562 229.066406 880.5625 228.464844 879.546875 228.742188 C 878.53125 229.011719 877.933594 230.054688 878.203125 231.066406 Z M 879.90625 240.558594 C 880.003906 241.605469 880.933594 242.371094 881.976562 242.277344 C 883.023438 242.179688 883.789062 241.246094 883.695312 240.207031 C 883.597656 239.15625 882.664062 238.390625 881.617188 238.488281 C 880.574219 238.582031 879.808594 239.515625 879.90625 240.558594 Z M 880.160156 246.039062 C 880.160156 247.085938 881.007812 247.941406 882.066406 247.941406 C 883.113281 247.941406 883.960938 247.085938 883.960938 246.039062 C 883.960938 244.988281 883.113281 244.132812 882.066406 244.132812 C 881.007812 244.132812 880.160156 244.988281 880.160156 246.039062 " fill-opacity="1" fill-rule="nonzero"/><path fill="#50c4bc" d="M 970.460938 249.53125 C 969.929688 250.441406 970.242188 251.605469 971.152344 252.132812 C 972.0625 252.65625 973.222656 252.351562 973.753906 251.441406 C 974.277344 250.53125 973.964844 249.363281 973.0625 248.839844 C 972.152344 248.316406 970.984375 248.625 970.460938 249.53125 Z M 964.175781 255.804688 C 963.265625 256.335938 962.953125 257.492188 963.476562 258.40625 C 964.007812 259.316406 965.167969 259.625 966.078125 259.101562 C 966.992188 258.578125 967.300781 257.410156 966.777344 256.5 C 966.253906 255.589844 965.085938 255.277344 964.175781 255.804688 Z M 955.605469 258.085938 C 954.558594 258.085938 953.699219 258.9375 953.699219 259.984375 C 953.699219 261.042969 954.550781 261.890625 955.597656 261.898438 C 956.65625 261.898438 957.503906 261.046875 957.503906 259.992188 C 957.511719 258.941406 956.65625 258.085938 955.605469 258.085938 Z M 947.042969 255.78125 C 946.132812 255.25 944.964844 255.5625 944.441406 256.472656 C 943.910156 257.382812 944.21875 258.542969 945.132812 259.074219 C 946.035156 259.597656 947.203125 259.296875 947.734375 258.382812 C 948.257812 257.472656 947.945312 256.308594 947.042969 255.78125 Z M 940.777344 249.488281 C 940.253906 248.578125 939.085938 248.265625 938.175781 248.789062 C 937.265625 249.316406 936.953125 250.476562 937.480469 251.394531 C 938.003906 252.296875 939.164062 252.613281 940.082031 252.089844 C 940.984375 251.566406 941.300781 250.398438 940.777344 249.488281 Z M 938.507812 240.917969 C 938.507812 239.859375 937.660156 239.003906 936.609375 239.003906 C 935.554688 239.003906 934.707031 239.855469 934.699219 240.902344 C 934.699219 241.953125 935.546875 242.808594 936.597656 242.8125 C 937.652344 242.8125 938.5 241.964844 938.507812 240.917969 Z M 940.824219 232.351562 C 941.351562 231.441406 941.046875 230.28125 940.136719 229.75 C 939.230469 229.21875 938.066406 229.527344 937.535156 230.433594 C 937.003906 231.34375 937.3125 232.503906 938.21875 233.035156 C 939.128906 233.566406 940.292969 233.253906 940.824219 232.351562 Z M 947.117188 226.09375 C 948.035156 225.574219 948.347656 224.410156 947.824219 223.496094 C 947.304688 222.585938 946.140625 222.269531 945.226562 222.792969 C 944.316406 223.316406 944 224.476562 944.523438 225.386719 C 945.046875 226.300781 946.207031 226.617188 947.117188 226.09375 Z M 955.703125 223.835938 C 956.75 223.835938 957.605469 222.992188 957.605469 221.9375 C 957.613281 220.886719 956.765625 220.03125 955.714844 220.027344 C 954.660156 220.027344 953.804688 220.875 953.804688 221.921875 C 953.796875 222.972656 954.644531 223.828125 955.703125 223.835938 Z M 964.257812 226.160156 C 965.160156 226.691406 966.328125 226.390625 966.859375 225.484375 C 967.390625 224.574219 967.085938 223.40625 966.175781 222.875 C 965.273438 222.34375 964.105469 222.65625 963.574219 223.558594 C 963.042969 224.46875 963.355469 225.636719 964.257812 226.160156 Z M 970.503906 232.46875 C 971.027344 233.378906 972.1875 233.699219 973.105469 233.179688 C 974.015625 232.65625 974.332031 231.496094 973.808594 230.585938 C 973.289062 229.667969 972.125 229.351562 971.214844 229.875 C 970.300781 230.398438 969.984375 231.558594 970.503906 232.46875 Z M 972.753906 240.957031 C 972.753906 242.015625 973.609375 242.863281 974.65625 242.863281 C 975.707031 242.863281 976.5625 242.015625 976.5625 240.957031 C 976.5625 239.910156 975.707031 239.058594 974.65625 239.058594 C 973.609375 239.058594 972.753906 239.910156 972.753906 240.957031 " fill-opacity="1" fill-rule="nonzero"/><path fill="#50c4bc" d="M 994.355469 474.890625 C 994.085938 475.902344 994.695312 476.945312 995.703125 477.214844 C 996.722656 477.492188 997.765625 476.882812 998.035156 475.867188 C 998.308594 474.855469 997.703125 473.8125 996.6875 473.542969 C 995.671875 473.265625 994.632812 473.875 994.355469 474.890625 Z M 990.742188 483.613281 C 990.210938 484.523438 990.519531 485.691406 991.429688 486.214844 C 992.339844 486.738281 993.507812 486.429688 994.03125 485.523438 C 994.554688 484.613281 994.246094 483.445312 993.339844 482.921875 C 992.429688 482.398438 991.265625 482.703125 990.742188 483.613281 Z M 984.980469 491.105469 C 984.234375 491.847656 984.234375 493.054688 984.980469 493.792969 C 985.71875 494.539062 986.925781 494.542969 987.664062 493.800781 C 988.40625 493.054688 988.40625 491.851562 987.667969 491.105469 C 986.925781 490.363281 985.722656 490.363281 984.980469 491.105469 Z M 977.480469 496.855469 C 976.566406 497.378906 976.257812 498.546875 976.78125 499.457031 C 977.304688 500.367188 978.472656 500.679688 979.382812 500.15625 C 980.292969 499.628906 980.605469 498.464844 980.078125 497.554688 C 979.554688 496.640625 978.390625 496.332031 977.480469 496.855469 Z M 968.757812 500.464844 C 967.734375 500.734375 967.136719 501.777344 967.40625 502.792969 C 967.671875 503.804688 968.714844 504.414062 969.730469 504.144531 C 970.742188 503.875 971.351562 502.832031 971.082031 501.8125 C 970.8125 500.796875 969.769531 500.195312 968.757812 500.464844 Z M 959.386719 501.671875 C 958.332031 501.671875 957.480469 502.527344 957.480469 503.578125 C 957.476562 504.628906 958.332031 505.484375 959.378906 505.484375 C 960.429688 505.484375 961.285156 504.632812 961.285156 503.585938 C 961.285156 502.527344 960.433594 501.679688 959.386719 501.671875 Z M 950.023438 500.4375 C 949.003906 500.167969 947.960938 500.769531 947.691406 501.785156 C 947.414062 502.796875 948.015625 503.839844 949.03125 504.117188 C 950.042969 504.386719 951.085938 503.785156 951.363281 502.769531 C 951.636719 501.757812 951.03125 500.714844 950.023438 500.4375 Z M 941.300781 496.808594 C 940.390625 496.277344 939.226562 496.585938 938.699219 497.496094 C 938.167969 498.402344 938.480469 499.570312 939.390625 500.09375 C 940.292969 500.625 941.460938 500.3125 941.992188 499.410156 C 942.515625 498.5 942.210938 497.332031 941.300781 496.808594 Z M 933.820312 491.03125 C 933.078125 490.285156 931.871094 490.285156 931.132812 491.023438 C 930.386719 491.769531 930.378906 492.96875 931.125 493.714844 C 931.863281 494.460938 933.070312 494.460938 933.816406 493.722656 C 934.558594 492.976562 934.558594 491.777344 933.820312 491.03125 Z M 928.082031 483.523438 C 927.558594 482.613281 926.390625 482.300781 925.480469 482.824219 C 924.570312 483.351562 924.257812 484.507812 924.785156 485.425781 C 925.308594 486.332031 926.46875 486.648438 927.378906 486.125 C 928.289062 485.601562 928.605469 484.433594 928.082031 483.523438 Z M 924.488281 474.792969 C 924.21875 473.769531 923.175781 473.171875 922.160156 473.441406 C 921.140625 473.707031 920.539062 474.75 920.808594 475.765625 C 921.070312 476.78125 922.121094 477.386719 923.132812 477.117188 C 924.148438 476.847656 924.753906 475.808594 924.488281 474.792969 Z M 923.285156 465.421875 C 923.285156 464.363281 922.4375 463.515625 921.386719 463.507812 C 920.339844 463.507812 919.484375 464.355469 919.484375 465.40625 C 919.476562 466.457031 920.324219 467.3125 921.382812 467.316406 C 922.429688 467.316406 923.277344 466.46875 923.285156 465.421875 Z M 924.535156 456.054688 C 924.8125 455.039062 924.210938 453.992188 923.195312 453.722656 C 922.183594 453.445312 921.140625 454.046875 920.863281 455.0625 C 920.589844 456.074219 921.1875 457.117188 922.203125 457.394531 C 923.21875 457.667969 924.265625 457.070312 924.535156 456.054688 Z M 928.179688 447.339844 C 928.710938 446.425781 928.40625 445.261719 927.496094 444.738281 C 926.585938 444.207031 925.425781 444.507812 924.894531 445.417969 C 924.363281 446.332031 924.671875 447.488281 925.578125 448.023438 C 926.488281 448.554688 927.652344 448.242188 928.179688 447.339844 Z M 933.96875 439.863281 C 934.710938 439.117188 934.710938 437.917969 933.972656 437.171875 C 933.234375 436.425781 932.027344 436.421875 931.28125 437.160156 C 930.539062 437.902344 930.53125 439.105469 931.277344 439.851562 C 932.015625 440.59375 933.214844 440.601562 933.96875 439.863281 Z M 941.472656 434.128906 C 942.386719 433.613281 942.703125 432.445312 942.179688 431.535156 C 941.652344 430.625 940.496094 430.304688 939.582031 430.832031 C 938.671875 431.355469 938.355469 432.515625 938.878906 433.425781 C 939.40625 434.34375 940.5625 434.652344 941.472656 434.128906 Z M 950.210938 430.546875 C 951.230469 430.285156 951.839844 429.242188 951.570312 428.222656 C 951.300781 427.207031 950.265625 426.597656 949.242188 426.867188 C 948.230469 427.136719 947.621094 428.171875 947.890625 429.195312 C 948.152344 430.210938 949.195312 430.816406 950.210938 430.546875 Z M 959.585938 429.359375 C 960.636719 429.367188 961.492188 428.519531 961.5 427.46875 C 961.5 426.414062 960.648438 425.558594 959.601562 425.558594 C 958.550781 425.550781 957.695312 426.398438 957.6875 427.449219 C 957.6875 428.503906 958.539062 429.359375 959.585938 429.359375 Z M 968.949219 430.625 C 969.964844 430.898438 971.007812 430.304688 971.28125 429.292969 C 971.558594 428.277344 970.957031 427.226562 969.945312 426.953125 C 968.9375 426.675781 967.886719 427.277344 967.613281 428.289062 C 967.335938 429.304688 967.9375 430.355469 968.949219 430.625 Z M 977.65625 434.28125 C 978.5625 434.8125 979.726562 434.507812 980.257812 433.605469 C 980.789062 432.695312 980.488281 431.527344 979.574219 430.996094 C 978.671875 430.464844 977.507812 430.773438 976.976562 431.679688 C 976.445312 432.589844 976.746094 433.757812 977.65625 434.28125 Z M 985.125 440.078125 C 985.863281 440.824219 987.070312 440.832031 987.816406 440.09375 C 988.558594 439.351562 988.566406 438.144531 987.828125 437.398438 C 987.082031 436.65625 985.882812 436.648438 985.136719 437.386719 C 984.390625 438.125 984.386719 439.332031 985.125 440.078125 Z M 990.835938 447.601562 C 991.363281 448.511719 992.527344 448.828125 993.4375 448.304688 C 994.347656 447.785156 994.667969 446.628906 994.140625 445.710938 C 993.625 444.796875 992.457031 444.480469 991.546875 445.003906 C 990.636719 445.523438 990.320312 446.691406 990.835938 447.601562 Z M 994.410156 456.34375 C 994.671875 457.359375 995.714844 457.972656 996.730469 457.703125 C 997.75 457.441406 998.359375 456.398438 998.097656 455.386719 C 997.828125 454.363281 996.785156 453.757812 995.769531 454.019531 C 994.757812 454.289062 994.140625 455.332031 994.410156 456.34375 Z M 995.585938 465.515625 C 995.585938 466.574219 996.433594 467.421875 997.488281 467.421875 C 998.539062 467.421875 999.386719 466.574219 999.386719 465.515625 C 999.386719 464.46875 998.539062 463.613281 997.488281 463.613281 C 996.433594 463.613281 995.585938 464.46875 995.585938 465.515625 " fill-opacity="1" fill-rule="nonzero"/><g clip-path="url(#id1)"><path fill="#50c4bc" d="M 585.984375 221.820312 C 585.722656 222.835938 586.339844 223.871094 587.359375 224.132812 C 588.378906 224.386719 589.414062 223.773438 589.671875 222.757812 C 589.933594 221.738281 589.3125 220.703125 588.296875 220.441406 C 587.277344 220.183594 586.242188 220.796875 585.984375 221.820312 Z M 582.515625 230.632812 C 582.019531 231.558594 582.355469 232.710938 583.273438 233.222656 C 584.199219 233.726562 585.351562 233.378906 585.855469 232.460938 L 585.863281 232.460938 C 586.367188 231.539062 586.019531 230.378906 585.101562 229.875 C 584.179688 229.371094 583.019531 229.714844 582.515625 230.632812 Z M 576.976562 238.320312 C 576.265625 239.09375 576.304688 240.296875 577.078125 241.011719 C 577.84375 241.722656 579.050781 241.683594 579.761719 240.917969 C 580.480469 240.144531 580.4375 238.941406 579.664062 238.226562 C 578.898438 237.507812 577.691406 237.554688 576.976562 238.320312 Z M 569.714844 244.414062 C 568.832031 244.980469 568.585938 246.160156 569.148438 247.046875 C 569.722656 247.929688 570.902344 248.175781 571.785156 247.609375 C 572.664062 247.039062 572.917969 245.859375 572.34375 244.972656 C 571.777344 244.089844 570.597656 243.84375 569.714844 244.414062 Z M 561.179688 248.523438 C 560.1875 248.851562 559.648438 249.929688 559.980469 250.921875 C 560.316406 251.925781 561.394531 252.460938 562.386719 252.132812 C 563.390625 251.792969 563.925781 250.714844 563.589844 249.722656 C 563.257812 248.722656 562.179688 248.183594 561.179688 248.523438 Z M 551.894531 250.378906 C 550.851562 250.453125 550.058594 251.363281 550.132812 252.40625 C 550.210938 253.457031 551.121094 254.242188 552.167969 254.167969 C 553.21875 254.089844 554.003906 253.179688 553.929688 252.136719 C 553.851562 251.089844 552.941406 250.300781 551.894531 250.378906 Z M 542.433594 249.894531 C 541.398438 249.707031 540.410156 250.398438 540.226562 251.433594 C 540.046875 252.46875 540.734375 253.457031 541.769531 253.644531 C 542.804688 253.820312 543.792969 253.132812 543.972656 252.097656 C 544.160156 251.0625 543.46875 250.074219 542.433594 249.894531 Z M 533.386719 247.085938 C 532.429688 246.652344 531.304688 247.078125 530.867188 248.03125 C 530.433594 248.992188 530.855469 250.117188 531.8125 250.550781 L 531.808594 250.550781 C 532.765625 250.984375 533.898438 250.566406 534.332031 249.605469 C 534.765625 248.652344 534.339844 247.519531 533.386719 247.085938 Z M 525.316406 242.125 C 524.492188 241.46875 523.300781 241.601562 522.636719 242.421875 C 521.980469 243.242188 522.113281 244.4375 522.933594 245.09375 C 523.753906 245.753906 524.949219 245.617188 525.609375 244.800781 C 526.265625 243.980469 526.136719 242.78125 525.316406 242.125 Z M 518.710938 235.328125 C 518.078125 234.484375 516.890625 234.320312 516.046875 234.953125 C 515.207031 235.589844 515.039062 236.78125 515.675781 237.617188 C 516.308594 238.460938 517.503906 238.625 518.339844 237.992188 C 519.179688 237.355469 519.347656 236.167969 518.710938 235.328125 Z M 513.992188 227.121094 C 513.585938 226.148438 512.464844 225.691406 511.5 226.097656 C 510.527344 226.5 510.074219 227.617188 510.480469 228.589844 C 510.886719 229.558594 512.003906 230.011719 512.96875 229.605469 C 513.941406 229.199219 514.398438 228.085938 513.992188 227.121094 Z M 511.453125 217.988281 C 511.300781 216.953125 510.335938 216.230469 509.292969 216.390625 C 508.257812 216.539062 507.53125 217.507812 507.691406 218.542969 C 507.84375 219.585938 508.808594 220.300781 509.84375 220.148438 C 510.886719 220 511.605469 219.03125 511.453125 217.988281 Z M 511.246094 208.515625 C 511.347656 207.472656 510.589844 206.535156 509.546875 206.429688 C 508.5 206.320312 507.566406 207.085938 507.457031 208.128906 C 507.355469 209.175781 508.113281 210.109375 509.160156 210.21875 C 510.203125 210.324219 511.140625 209.5625 511.246094 208.515625 Z M 513.378906 199.28125 C 513.734375 198.292969 513.234375 197.203125 512.246094 196.835938 C 511.257812 196.476562 510.160156 196.980469 509.804688 197.96875 C 509.4375 198.957031 509.949219 200.046875 510.933594 200.410156 C 511.921875 200.769531 513.011719 200.265625 513.378906 199.28125 Z M 517.730469 190.867188 C 518.324219 190.003906 518.105469 188.816406 517.242188 188.21875 C 516.371094 187.625 515.191406 187.84375 514.59375 188.707031 C 514 189.578125 514.21875 190.757812 515.082031 191.355469 C 515.949219 191.949219 517.132812 191.730469 517.730469 190.867188 Z M 524.03125 183.785156 C 524.816406 183.089844 524.902344 181.886719 524.203125 181.101562 C 523.511719 180.308594 522.304688 180.230469 521.519531 180.921875 C 520.726562 181.621094 520.648438 182.820312 521.339844 183.605469 C 522.035156 184.402344 523.238281 184.476562 524.03125 183.785156 Z M 531.871094 178.472656 C 532.808594 177.996094 533.179688 176.851562 532.703125 175.910156 C 532.226562 174.972656 531.082031 174.601562 530.144531 175.078125 C 529.207031 175.554688 528.832031 176.699219 529.308594 177.636719 C 529.785156 178.574219 530.929688 178.949219 531.871094 178.472656 Z M 540.777344 175.261719 C 541.804688 175.035156 542.453125 174.019531 542.21875 172.992188 C 541.992188 171.972656 540.976562 171.324219 539.949219 171.550781 C 538.929688 171.777344 538.28125 172.800781 538.507812 173.820312 C 538.734375 174.847656 539.757812 175.496094 540.777344 175.261719 Z M 550.210938 174.371094 C 551.265625 174.402344 552.140625 173.570312 552.167969 172.523438 C 552.195312 171.472656 551.367188 170.597656 550.320312 170.570312 C 549.269531 170.535156 548.394531 171.363281 548.367188 172.414062 C 548.332031 173.460938 549.160156 174.339844 550.210938 174.371094 Z M 559.574219 175.816406 C 560.582031 176.105469 561.636719 175.519531 561.925781 174.503906 C 562.214844 173.496094 561.628906 172.441406 560.621094 172.152344 C 559.609375 171.867188 558.550781 172.449219 558.269531 173.460938 C 557.980469 174.46875 558.566406 175.523438 559.574219 175.816406 Z M 568.28125 179.535156 C 569.191406 180.066406 570.359375 179.761719 570.890625 178.851562 C 571.421875 177.949219 571.109375 176.78125 570.207031 176.25 C 569.296875 175.71875 568.128906 176.027344 567.605469 176.933594 C 567.074219 177.835938 567.375 179.003906 568.28125 179.535156 Z M 575.808594 185.296875 C 576.554688 186.035156 577.761719 186.03125 578.5 185.277344 C 579.230469 184.53125 579.222656 183.324219 578.480469 182.59375 C 577.726562 181.855469 576.527344 181.859375 575.789062 182.605469 C 575.050781 183.359375 575.054688 184.566406 575.808594 185.296875 Z M 581.679688 192.738281 C 582.226562 193.632812 583.390625 193.925781 584.296875 193.378906 C 585.191406 192.835938 585.476562 191.660156 584.929688 190.765625 C 584.390625 189.867188 583.21875 189.578125 582.324219 190.121094 C 581.425781 190.667969 581.136719 191.832031 581.679688 192.738281 Z M 585.53125 201.386719 C 585.835938 202.394531 586.898438 202.964844 587.90625 202.660156 C 588.910156 202.351562 589.476562 201.296875 589.175781 200.289062 C 588.871094 199.28125 587.808594 198.714844 586.808594 199.019531 C 585.800781 199.320312 585.226562 200.382812 585.53125 201.386719 Z M 587.117188 210.730469 C 587.167969 211.777344 588.050781 212.59375 589.097656 212.542969 C 590.148438 212.496094 590.960938 211.613281 590.917969 210.5625 C 590.871094 209.515625 589.988281 208.699219 588.933594 208.742188 C 587.882812 208.789062 587.070312 209.679688 587.117188 210.730469 Z M 587.152344 212.414062 C 587.152344 213.460938 588.007812 214.316406 589.058594 214.316406 C 590.105469 214.316406 590.960938 213.460938 590.960938 212.414062 C 590.960938 211.363281 590.105469 210.507812 589.058594 210.507812 C 588.007812 210.507812 587.152344 211.363281 587.152344 212.414062 " fill-opacity="1" fill-rule="nonzero"/></g><path fill="#50c4bc" d="M 468.636719 303.835938 C 468.222656 304.804688 468.671875 305.921875 469.636719 306.335938 C 470.605469 306.75 471.722656 306.300781 472.136719 305.335938 C 472.550781 304.367188 472.101562 303.25 471.136719 302.835938 C 470.167969 302.421875 469.046875 302.871094 468.636719 303.835938 Z M 463.429688 311.359375 C 462.675781 312.089844 462.648438 313.292969 463.375 314.050781 C 464.105469 314.808594 465.304688 314.832031 466.0625 314.105469 C 466.824219 313.382812 466.851562 312.171875 466.121094 311.414062 C 465.394531 310.65625 464.1875 310.632812 463.429688 311.359375 Z M 455.699219 316.246094 C 454.71875 316.617188 454.222656 317.714844 454.597656 318.703125 C 454.96875 319.683594 456.066406 320.179688 457.046875 319.808594 C 458.03125 319.433594 458.523438 318.335938 458.15625 317.355469 C 457.785156 316.371094 456.6875 315.871094 455.699219 316.246094 Z M 446.675781 317.695312 C 445.625 317.652344 444.734375 318.46875 444.695312 319.515625 C 444.652344 320.566406 445.46875 321.457031 446.515625 321.496094 C 447.566406 321.539062 448.457031 320.726562 448.496094 319.675781 C 448.539062 318.625 447.722656 317.734375 446.675781 317.695312 Z M 437.800781 315.5 C 436.855469 315.042969 435.71875 315.445312 435.261719 316.398438 C 434.8125 317.34375 435.214844 318.480469 436.160156 318.929688 C 437.113281 319.386719 438.242188 318.984375 438.699219 318.03125 C 439.152344 317.085938 438.746094 315.949219 437.800781 315.5 Z M 430.5 309.984375 C 429.804688 309.199219 428.605469 309.125 427.816406 309.820312 C 427.03125 310.515625 426.953125 311.71875 427.652344 312.503906 C 428.347656 313.292969 429.550781 313.367188 430.335938 312.671875 C 431.121094 311.972656 431.199219 310.773438 430.5 309.984375 Z M 425.949219 302.054688 C 425.617188 301.0625 424.539062 300.515625 423.539062 300.847656 C 422.546875 301.179688 422 302.257812 422.332031 303.257812 C 422.664062 304.25 423.738281 304.796875 424.738281 304.464844 C 425.734375 304.132812 426.277344 303.058594 425.949219 302.054688 Z M 424.871094 292.972656 C 424.960938 291.925781 424.179688 291.007812 423.132812 290.925781 C 422.082031 290.835938 421.164062 291.613281 421.082031 292.664062 C 420.992188 293.707031 421.773438 294.628906 422.820312 294.714844 C 423.871094 294.804688 424.789062 294.023438 424.871094 292.972656 Z M 427.4375 284.203125 C 427.929688 283.269531 427.574219 282.117188 426.652344 281.628906 C 425.71875 281.136719 424.566406 281.488281 424.078125 282.421875 C 423.585938 283.347656 423.941406 284.5 424.863281 284.988281 C 425.796875 285.484375 426.949219 285.132812 427.4375 284.203125 Z M 433.246094 277.136719 C 434.070312 276.472656 434.191406 275.277344 433.53125 274.457031 C 432.867188 273.644531 431.667969 273.519531 430.851562 274.179688 C 430.039062 274.84375 429.914062 276.042969 430.578125 276.859375 C 431.234375 277.671875 432.433594 277.796875 433.246094 277.136719 Z M 441.355469 272.910156 C 442.371094 272.628906 442.957031 271.574219 442.667969 270.566406 C 442.375 269.550781 441.328125 268.964844 440.3125 269.253906 C 439.304688 269.542969 438.71875 270.59375 439.007812 271.605469 C 439.292969 272.613281 440.347656 273.203125 441.355469 272.910156 Z M 450.476562 272.222656 C 451.519531 272.34375 452.472656 271.605469 452.601562 270.566406 C 452.734375 269.523438 451.988281 268.570312 450.945312 268.4375 C 449.90625 268.308594 448.953125 269.054688 448.820312 270.097656 C 448.695312 271.136719 449.433594 272.089844 450.476562 272.222656 Z M 459.136719 275.148438 C 460.039062 275.679688 461.207031 275.375 461.738281 274.472656 C 462.269531 273.558594 461.957031 272.394531 461.054688 271.863281 C 460.144531 271.332031 458.984375 271.640625 458.453125 272.546875 C 457.921875 273.457031 458.226562 274.625 459.136719 275.148438 Z M 465.945312 281.25 C 466.574219 282.097656 467.769531 282.269531 468.609375 281.640625 C 469.453125 281.015625 469.632812 279.820312 469.003906 278.976562 C 468.375 278.136719 467.183594 277.964844 466.339844 278.589844 C 465.5 279.21875 465.320312 280.40625 465.945312 281.25 Z M 469.832031 289.53125 C 470.074219 290.550781 471.101562 291.179688 472.121094 290.9375 C 473.144531 290.691406 473.769531 289.660156 473.53125 288.640625 C 473.28125 287.617188 472.261719 286.992188 471.230469 287.230469 C 470.210938 287.480469 469.582031 288.507812 469.832031 289.53125 Z M 470.460938 294.878906 C 470.460938 295.933594 471.308594 296.785156 472.363281 296.785156 C 473.414062 296.785156 474.269531 295.933594 474.269531 294.878906 L 474.261719 294.878906 C 474.261719 293.828125 473.414062 292.972656 472.363281 292.972656 C 471.308594 292.972656 470.460938 293.828125 470.460938 294.878906 " fill-opacity="1" fill-rule="nonzero"/><path fill="#50c4bc" d="M 469.722656 519.367188 C 469.257812 520.320312 469.660156 521.453125 470.605469 521.914062 C 471.550781 522.371094 472.6875 521.96875 473.144531 521.023438 C 473.597656 520.078125 473.207031 518.941406 472.261719 518.484375 C 471.316406 518.03125 470.175781 518.421875 469.722656 519.367188 Z M 464.070312 526.4375 C 463.25 527.089844 463.117188 528.292969 463.773438 529.113281 C 464.421875 529.933594 465.621094 530.074219 466.445312 529.417969 C 467.265625 528.761719 467.402344 527.5625 466.746094 526.738281 C 466.089844 525.917969 464.890625 525.78125 464.070312 526.4375 Z M 455.929688 530.355469 C 454.898438 530.589844 454.257812 531.605469 454.492188 532.632812 C 454.71875 533.65625 455.742188 534.304688 456.761719 534.070312 C 457.792969 533.835938 458.433594 532.820312 458.203125 531.792969 C 457.96875 530.769531 456.949219 530.121094 455.929688 530.355469 Z M 446.882812 530.34375 C 445.859375 530.105469 444.839844 530.75 444.605469 531.769531 C 444.371094 532.800781 445.003906 533.820312 446.035156 534.054688 C 447.054688 534.289062 448.074219 533.648438 448.308594 532.621094 C 448.546875 531.597656 447.902344 530.578125 446.882812 530.34375 Z M 438.746094 526.402344 C 437.925781 525.746094 436.730469 525.875 436.078125 526.699219 C 435.414062 527.511719 435.546875 528.714844 436.367188 529.367188 C 437.1875 530.03125 438.382812 529.894531 439.042969 529.078125 C 439.699219 528.257812 439.566406 527.058594 438.746094 526.402344 Z M 433.125 519.320312 C 432.667969 518.367188 431.53125 517.972656 430.585938 518.421875 C 429.640625 518.878906 429.238281 520.015625 429.695312 520.960938 L 429.6875 520.960938 C 430.144531 521.910156 431.28125 522.316406 432.226562 521.859375 C 433.179688 521.40625 433.578125 520.265625 433.125 519.320312 Z M 431.136719 510.5 C 431.144531 509.445312 430.292969 508.589844 429.238281 508.589844 C 428.191406 508.589844 427.335938 509.4375 427.335938 510.488281 C 427.335938 511.535156 428.183594 512.390625 429.230469 512.398438 C 430.28125 512.398438 431.136719 511.550781 431.136719 510.5 Z M 433.171875 501.6875 C 433.632812 500.742188 433.242188 499.601562 432.296875 499.148438 C 431.351562 498.683594 430.210938 499.078125 429.75 500.023438 C 429.292969 500.96875 429.6875 502.109375 430.632812 502.570312 C 431.570312 503.027344 432.714844 502.632812 433.171875 501.6875 Z M 438.84375 494.640625 C 439.664062 493.984375 439.800781 492.792969 439.148438 491.964844 C 438.5 491.140625 437.296875 491.003906 436.476562 491.652344 C 435.65625 492.308594 435.519531 493.503906 436.167969 494.332031 C 436.820312 495.152344 438.015625 495.289062 438.84375 494.640625 Z M 447 490.742188 C 448.019531 490.515625 448.667969 489.5 448.441406 488.472656 C 448.214844 487.449219 447.191406 486.800781 446.171875 487.027344 C 445.144531 487.257812 444.496094 488.269531 444.722656 489.300781 C 444.957031 490.328125 445.972656 490.976562 447 490.742188 Z M 456.046875 490.78125 C 457.066406 491.023438 458.085938 490.382812 458.324219 489.359375 C 458.5625 488.332031 457.929688 487.3125 456.902344 487.078125 C 455.878906 486.835938 454.859375 487.476562 454.617188 488.5 C 454.382812 489.519531 455.015625 490.546875 456.046875 490.78125 Z M 464.167969 494.75 C 464.980469 495.40625 466.179688 495.28125 466.84375 494.460938 C 467.5 493.640625 467.367188 492.445312 466.554688 491.785156 C 465.734375 491.128906 464.539062 491.253906 463.875 492.074219 C 463.222656 492.886719 463.34375 494.089844 464.167969 494.75 Z M 469.769531 501.847656 C 470.21875 502.796875 471.355469 503.199219 472.300781 502.75 C 473.253906 502.292969 473.652344 501.164062 473.207031 500.210938 C 472.757812 499.265625 471.617188 498.859375 470.671875 499.3125 C 469.722656 499.761719 469.320312 500.902344 469.769531 501.847656 Z M 471.730469 510.554688 C 471.730469 511.605469 472.578125 512.460938 473.625 512.460938 C 474.683594 512.460938 475.53125 511.605469 475.53125 510.554688 C 475.53125 509.507812 474.683594 508.652344 473.625 508.652344 C 472.578125 508.652344 471.730469 509.507812 471.730469 510.554688 " fill-opacity="1" fill-rule="nonzero"/><path fill="#50c4bc" d="M 739.316406 363.4375 C 738.71875 364.300781 738.9375 365.488281 739.800781 366.085938 C 740.664062 366.679688 741.851562 366.46875 742.445312 365.605469 C 743.042969 364.742188 742.832031 363.554688 741.96875 362.953125 C 741.105469 362.355469 739.917969 362.574219 739.316406 363.4375 Z M 732.472656 368.792969 C 731.492188 369.164062 730.996094 370.261719 731.371094 371.25 C 731.742188 372.230469 732.839844 372.726562 733.820312 372.355469 C 734.804688 371.980469 735.296875 370.882812 734.921875 369.898438 C 734.558594 368.917969 733.460938 368.421875 732.472656 368.792969 Z M 723.800781 369.304688 C 722.777344 369.054688 721.75 369.675781 721.496094 370.699219 C 721.238281 371.71875 721.867188 372.746094 722.890625 372.996094 C 723.902344 373.25 724.9375 372.628906 725.1875 371.609375 C 725.441406 370.585938 724.820312 369.558594 723.800781 369.304688 Z M 716.375 364.789062 C 715.679688 364.003906 714.476562 363.925781 713.691406 364.625 C 712.90625 365.320312 712.828125 366.523438 713.519531 367.308594 C 714.214844 368.101562 715.417969 368.171875 716.210938 367.480469 C 716.996094 366.785156 717.074219 365.582031 716.375 364.789062 Z M 712.828125 356.867188 C 712.703125 355.820312 711.757812 355.074219 710.71875 355.199219 C 709.675781 355.320312 708.921875 356.265625 709.046875 357.308594 C 709.171875 358.351562 710.117188 359.097656 711.160156 358.980469 C 712.199219 358.855469 712.953125 357.910156 712.828125 356.867188 Z M 714.414062 348.316406 C 714.90625 347.390625 714.554688 346.238281 713.628906 345.75 C 712.699219 345.257812 711.546875 345.609375 711.054688 346.535156 C 710.566406 347.46875 710.917969 348.621094 711.847656 349.109375 C 712.773438 349.601562 713.925781 349.25 714.414062 348.316406 Z M 720.585938 342.195312 C 721.515625 341.703125 721.875 340.558594 721.390625 339.628906 C 720.910156 338.695312 719.757812 338.332031 718.824219 338.820312 C 717.894531 339.304688 717.535156 340.457031 718.019531 341.386719 C 718.5 342.320312 719.652344 342.679688 720.585938 342.195312 Z M 729.140625 340.664062 C 730.183594 340.792969 731.128906 340.054688 731.257812 339.007812 C 731.390625 337.964844 730.652344 337.019531 729.601562 336.886719 L 729.609375 336.886719 C 728.5625 336.757812 727.617188 337.496094 727.484375 338.539062 C 727.351562 339.585938 728.089844 340.53125 729.132812 340.664062 Z M 737.042969 344.265625 C 737.820312 344.96875 739.019531 344.898438 739.726562 344.113281 C 740.429688 343.332031 740.359375 342.132812 739.574219 341.429688 C 738.792969 340.726562 737.59375 340.792969 736.890625 341.582031 C 736.183594 342.359375 736.253906 343.5625 737.042969 344.265625 Z M 741.5 351.71875 C 741.746094 352.742188 742.773438 353.375 743.796875 353.125 C 744.816406 352.878906 745.445312 351.855469 745.203125 350.828125 C 744.957031 349.808594 743.925781 349.179688 742.90625 349.425781 C 741.886719 349.667969 741.257812 350.699219 741.5 351.71875 Z M 741.90625 355.140625 C 741.90625 356.191406 742.753906 357.046875 743.808594 357.046875 C 744.859375 357.046875 745.707031 356.191406 745.707031 355.140625 C 745.707031 354.09375 744.859375 353.246094 743.808594 353.246094 C 742.753906 353.246094 741.90625 354.09375 741.90625 355.140625 " fill-opacity="1" fill-rule="nonzero"/><path fill="#5a231c" d="M 515.550781 412.886719 L 515.550781 608.699219 C 515.550781 609.757812 516.398438 610.605469 517.449219 610.605469 C 518.503906 610.605469 519.351562 609.757812 519.351562 608.699219 L 519.351562 412.886719 C 519.351562 411.832031 518.503906 410.980469 517.449219 410.980469 C 516.398438 410.980469 515.550781 411.832031 515.550781 412.886719 " fill-opacity="1" fill-rule="nonzero"/><path fill="#a0a4a3" d="M 545.753906 622.855469 L 489.144531 622.855469 L 489.144531 610.28125 L 545.753906 610.28125 L 545.753906 622.855469 " fill-opacity="1" fill-rule="nonzero"/><path fill="#5a231c" d="M 545.753906 622.855469 L 545.753906 620.949219 L 491.050781 620.949219 L 491.050781 612.1875 L 543.847656 612.1875 L 543.847656 622.855469 L 545.753906 622.855469 L 545.753906 620.949219 L 545.753906 622.855469 L 547.65625 622.855469 L 547.65625 610.28125 C 547.65625 609.777344 547.457031 609.289062 547.097656 608.933594 C 546.746094 608.582031 546.257812 608.375 545.753906 608.375 L 489.144531 608.375 C 488.640625 608.375 488.152344 608.582031 487.800781 608.933594 C 487.445312 609.289062 487.242188 609.777344 487.242188 610.28125 L 487.242188 622.855469 C 487.242188 623.351562 487.445312 623.84375 487.800781 624.203125 C 488.152344 624.554688 488.640625 624.753906 489.144531 624.753906 L 545.753906 624.753906 C 546.261719 624.753906 546.738281 624.558594 547.097656 624.203125 C 547.457031 623.84375 547.65625 623.359375 547.65625 622.855469 L 545.753906 622.855469 " fill-opacity="1" fill-rule="nonzero"/><path fill="#a0a4a3" d="M 559.902344 622.855469 L 474.992188 622.855469 L 474.992188 635.4375 L 559.902344 635.4375 L 559.902344 622.855469 " fill-opacity="1" fill-rule="nonzero"/><path fill="#5a231c" d="M 559.902344 622.855469 L 559.902344 620.949219 L 474.992188 620.949219 C 474.488281 620.949219 474 621.152344 473.648438 621.511719 C 473.296875 621.863281 473.089844 622.351562 473.089844 622.855469 L 473.089844 635.4375 C 473.089844 635.941406 473.296875 636.429688 473.648438 636.78125 C 474 637.140625 474.488281 637.34375 474.992188 637.34375 L 559.902344 637.34375 C 560.414062 637.34375 560.890625 637.140625 561.25 636.78125 C 561.609375 636.425781 561.808594 635.949219 561.808594 635.4375 L 561.808594 622.855469 C 561.808594 622.351562 561.601562 621.863281 561.25 621.511719 C 560.898438 621.152344 560.40625 620.949219 559.902344 620.949219 L 559.902344 622.855469 L 558 622.855469 L 558 633.539062 L 476.898438 633.539062 L 476.898438 624.753906 L 559.902344 624.753906 L 559.902344 622.855469 L 558 622.855469 L 559.902344 622.855469 " fill-opacity="1" fill-rule="nonzero"/><path fill="#ed0f6a" d="M 476.019531 416.421875 C 475.335938 416.421875 474.710938 416.054688 474.371094 415.46875 L 432.945312 343.6875 C 432.597656 343.097656 432.597656 342.375 432.945312 341.78125 L 474.371094 270.007812 C 474.710938 269.414062 475.335938 269.054688 476.019531 269.054688 L 558.882812 269.054688 C 559.566406 269.054688 560.195312 269.414062 560.53125 270.007812 L 601.964844 341.78125 C 602.304688 342.375 602.304688 343.097656 601.964844 343.6875 L 560.53125 415.46875 C 560.195312 416.054688 559.566406 416.421875 558.882812 416.421875 L 476.019531 416.421875 " fill-opacity="1" fill-rule="nonzero"/><path fill="#5a231c" d="M 558.882812 267.148438 L 476.019531 267.148438 C 474.660156 267.148438 473.40625 267.875 472.722656 269.054688 L 431.296875 340.835938 C 430.613281 342.007812 430.613281 343.457031 431.296875 344.636719 L 472.722656 416.421875 C 473.40625 417.59375 474.660156 418.324219 476.019531 418.324219 L 558.882812 418.324219 C 560.25 418.324219 561.503906 417.59375 562.179688 416.421875 L 603.617188 344.636719 C 604.292969 343.457031 604.292969 342.007812 603.617188 340.835938 L 562.179688 269.054688 C 561.503906 267.875 560.25 267.148438 558.882812 267.148438 Z M 558.882812 270.953125 L 600.316406 342.734375 L 558.882812 414.515625 L 476.019531 414.515625 L 434.585938 342.734375 L 476.019531 270.953125 L 558.882812 270.953125 " fill-opacity="1" fill-rule="nonzero"/><path fill="#b20b4c" d="M 558.882812 270.953125 L 544.964844 270.953125 C 555.984375 284.332031 562.664062 301.367188 562.664062 319.71875 C 562.664062 361.84375 527.515625 396.984375 485.417969 396.984375 C 478.054688 396.984375 470.902344 395.910156 464.125 393.914062 L 476.019531 414.515625 L 558.882812 414.515625 L 600.316406 342.734375 L 558.882812 270.953125 " fill-opacity="1" fill-rule="nonzero"/><path fill="#ed0f6a" d="M 482.632812 404.949219 C 481.953125 404.949219 481.328125 404.589844 480.980469 403.996094 L 446.171875 343.6875 C 445.828125 343.097656 445.828125 342.375 446.171875 341.78125 L 480.980469 281.46875 C 481.328125 280.882812 481.953125 280.515625 482.632812 280.515625 L 552.265625 280.515625 C 552.941406 280.515625 553.570312 280.882812 553.914062 281.46875 L 588.730469 341.78125 C 589.070312 342.375 589.070312 343.097656 588.730469 343.6875 L 553.914062 403.996094 C 553.570312 404.589844 552.941406 404.949219 552.265625 404.949219 L 482.632812 404.949219 " fill-opacity="1" fill-rule="nonzero"/><path fill="#5a231c" d="M 552.265625 278.617188 L 482.632812 278.617188 C 481.273438 278.617188 480.015625 279.34375 479.332031 280.515625 L 444.523438 340.835938 C 443.839844 342.007812 443.839844 343.457031 444.523438 344.636719 L 479.332031 404.949219 C 480.015625 406.121094 481.273438 406.855469 482.632812 406.855469 L 552.265625 406.855469 C 553.625 406.855469 554.882812 406.128906 555.558594 404.949219 L 590.382812 344.636719 C 591.058594 343.457031 591.058594 342.007812 590.382812 340.835938 L 555.558594 280.515625 C 554.882812 279.34375 553.625 278.617188 552.265625 278.617188 Z M 552.265625 282.421875 L 587.082031 342.734375 L 552.265625 403.046875 L 482.632812 403.046875 L 447.8125 342.734375 L 482.632812 282.421875 L 552.265625 282.421875 " fill-opacity="1" fill-rule="nonzero"/><path fill="#b20b4c" d="M 555.929688 289.351562 C 560.035156 298.714844 562.332031 308.984375 562.332031 319.71875 C 562.332031 361.84375 527.191406 396.984375 485.085938 396.984375 C 482.914062 396.984375 480.769531 396.882812 478.636719 396.695312 L 482.308594 403.046875 L 551.933594 403.046875 L 586.757812 342.734375 L 555.929688 289.351562 " fill-opacity="1" fill-rule="nonzero"/><path fill="#ffffff" d="M 489.667969 340.71875 L 489.667969 321.375 L 481.535156 340.71875 Z M 473.992188 340.71875 L 488.925781 305.390625 L 497.886719 305.390625 L 497.886719 340.71875 L 501.765625 340.71875 L 501.765625 348.179688 L 497.886719 348.179688 L 497.886719 357.667969 L 489.667969 357.667969 L 489.667969 348.179688 L 473.992188 348.179688 L 473.992188 340.71875 " fill-opacity="1" fill-rule="nonzero"/><path fill="#ffffff" d="M 513.039062 345.644531 C 513.039062 349.386719 514.6875 350.800781 517.304688 350.800781 C 519.910156 350.800781 521.554688 349.386719 521.554688 345.644531 L 521.554688 317.410156 C 521.554688 313.679688 519.910156 312.257812 517.304688 312.257812 C 514.6875 312.257812 513.039062 313.679688 513.039062 317.410156 Z M 504.828125 317.945312 C 504.828125 309.578125 509.238281 304.796875 517.304688 304.796875 C 525.371094 304.796875 529.773438 309.578125 529.773438 317.945312 L 529.773438 345.121094 C 529.773438 353.492188 525.371094 358.261719 517.304688 358.261719 C 509.238281 358.261719 504.828125 353.492188 504.828125 345.121094 L 504.828125 317.945312 " fill-opacity="1" fill-rule="nonzero"/><path fill="#ffffff" d="M 548.808594 340.71875 L 548.808594 321.375 L 540.675781 340.71875 Z M 533.132812 340.71875 L 548.0625 305.390625 L 557.019531 305.390625 L 557.019531 340.71875 L 560.90625 340.71875 L 560.90625 348.179688 L 557.019531 348.179688 L 557.019531 357.667969 L 548.808594 357.667969 L 548.808594 348.179688 L 533.132812 348.179688 L 533.132812 340.71875 " fill-opacity="1" fill-rule="nonzero"/><path fill="#ffffff" d="M 490.925781 372.976562 L 495.652344 372.976562 L 495.652344 376.117188 L 490.925781 376.117188 L 490.925781 382.546875 L 496.878906 382.546875 L 496.878906 385.6875 L 487.476562 385.6875 L 487.476562 363.71875 L 496.878906 363.71875 L 496.878906 366.855469 L 490.925781 366.855469 L 490.925781 372.976562 " fill-opacity="1" fill-rule="nonzero"/><path fill="#ffffff" d="M 502.476562 366.855469 L 502.476562 373.601562 L 503.820312 373.601562 C 505.109375 373.601562 505.898438 373.042969 505.898438 371.277344 L 505.898438 369.117188 C 505.898438 367.542969 505.359375 366.855469 504.136719 366.855469 Z M 506.242188 385.6875 C 506.054688 385.121094 505.925781 384.769531 505.925781 382.988281 L 505.925781 379.53125 C 505.925781 377.496094 505.234375 376.742188 503.664062 376.742188 L 502.476562 376.742188 L 502.476562 385.6875 L 499.027344 385.6875 L 499.027344 363.71875 L 504.226562 363.71875 C 507.816406 363.71875 509.347656 365.382812 509.347656 368.773438 L 509.347656 370.492188 C 509.347656 372.753906 508.625 374.230469 507.085938 374.949219 C 508.816406 375.679688 509.382812 377.335938 509.382812 379.628906 L 509.382812 383.023438 C 509.382812 384.085938 509.417969 384.867188 509.753906 385.6875 L 506.242188 385.6875 " fill-opacity="1" fill-rule="nonzero"/><path fill="#ffffff" d="M 515.09375 366.855469 L 515.09375 373.601562 L 516.449219 373.601562 C 517.722656 373.601562 518.519531 373.042969 518.519531 371.277344 L 518.519531 369.117188 C 518.519531 367.542969 517.988281 366.855469 516.757812 366.855469 Z M 518.863281 385.6875 C 518.667969 385.121094 518.546875 384.769531 518.546875 382.988281 L 518.546875 379.53125 C 518.546875 377.496094 517.855469 376.742188 516.289062 376.742188 L 515.09375 376.742188 L 515.09375 385.6875 L 511.644531 385.6875 L 511.644531 363.71875 L 516.855469 363.71875 C 520.429688 363.71875 521.960938 365.382812 521.960938 368.773438 L 521.960938 370.492188 C 521.960938 372.753906 521.242188 374.230469 519.710938 374.949219 C 521.429688 375.679688 522.003906 377.335938 522.003906 379.628906 L 522.003906 383.023438 C 522.003906 384.085938 522.03125 384.867188 522.375 385.6875 L 518.863281 385.6875 " fill-opacity="1" fill-rule="nonzero"/><path fill="#ffffff" d="M 527.433594 380.636719 C 527.433594 382.203125 528.121094 382.796875 529.21875 382.796875 C 530.324219 382.796875 531.015625 382.203125 531.015625 380.636719 L 531.015625 368.773438 C 531.015625 367.199219 530.324219 366.605469 529.21875 366.605469 C 528.121094 366.605469 527.433594 367.199219 527.433594 368.773438 Z M 523.984375 368.992188 C 523.984375 365.472656 525.832031 363.464844 529.21875 363.464844 C 532.609375 363.464844 534.464844 365.472656 534.464844 368.992188 L 534.464844 380.410156 C 534.464844 383.929688 532.609375 385.941406 529.21875 385.941406 C 525.832031 385.941406 523.984375 383.929688 523.984375 380.410156 L 523.984375 368.992188 " fill-opacity="1" fill-rule="nonzero"/><path fill="#ffffff" d="M 540.148438 366.855469 L 540.148438 373.601562 L 541.496094 373.601562 C 542.777344 373.601562 543.566406 373.042969 543.566406 371.277344 L 543.566406 369.117188 C 543.566406 367.542969 543.035156 366.855469 541.820312 366.855469 Z M 543.910156 385.6875 C 543.722656 385.121094 543.597656 384.769531 543.597656 382.988281 L 543.597656 379.53125 C 543.597656 377.496094 542.910156 376.742188 541.335938 376.742188 L 540.148438 376.742188 L 540.148438 385.6875 L 536.699219 385.6875 L 536.699219 363.71875 L 541.910156 363.71875 C 545.484375 363.71875 547.023438 365.382812 547.023438 368.773438 L 547.023438 370.492188 C 547.023438 372.753906 546.296875 374.230469 544.757812 374.949219 C 546.492188 375.679688 547.050781 377.335938 547.050781 379.628906 L 547.050781 383.023438 C 547.050781 384.085938 547.082031 384.867188 547.429688 385.6875 L 543.910156 385.6875 " fill-opacity="1" fill-rule="nonzero"/><path fill="#5a231c" d="M 873.757812 427.34375 L 873.757812 610.445312 C 873.757812 611.496094 874.613281 612.34375 875.660156 612.34375 C 876.710938 612.34375 877.566406 611.496094 877.566406 610.445312 L 877.566406 427.34375 C 877.566406 426.289062 876.710938 425.441406 875.660156 425.441406 C 874.613281 425.441406 873.757812 426.289062 873.757812 427.34375 " fill-opacity="1" fill-rule="nonzero"/><path fill="#a0a4a3" d="M 902.125 623.671875 L 849.195312 623.671875 L 849.195312 611.917969 L 902.125 611.917969 L 902.125 623.671875 " fill-opacity="1" fill-rule="nonzero"/><path fill="#5a231c" d="M 902.125 623.671875 L 902.125 621.765625 L 851.097656 621.765625 L 851.097656 613.820312 L 900.21875 613.820312 L 900.21875 623.671875 L 902.125 623.671875 L 902.125 621.765625 L 902.125 623.671875 L 904.027344 623.671875 L 904.027344 611.917969 C 904.027344 611.414062 903.820312 610.921875 903.46875 610.570312 C 903.109375 610.210938 902.621094 610.011719 902.125 610.011719 L 849.195312 610.011719 C 848.691406 610.011719 848.199219 610.210938 847.847656 610.570312 C 847.496094 610.921875 847.289062 611.414062 847.289062 611.917969 L 847.289062 623.671875 C 847.289062 624.167969 847.496094 624.664062 847.847656 625.015625 C 848.199219 625.367188 848.691406 625.574219 849.195312 625.574219 L 902.125 625.574219 C 902.628906 625.574219 903.109375 625.375 903.46875 625.015625 C 903.828125 624.65625 904.027344 624.179688 904.027344 623.671875 L 902.125 623.671875 " fill-opacity="1" fill-rule="nonzero"/><path fill="#a0a4a3" d="M 915.359375 623.671875 L 835.960938 623.671875 L 835.960938 635.4375 L 915.359375 635.4375 L 915.359375 623.671875 " fill-opacity="1" fill-rule="nonzero"/><path fill="#5a231c" d="M 915.359375 623.671875 L 915.359375 621.765625 L 835.960938 621.765625 C 835.460938 621.765625 834.964844 621.972656 834.613281 622.324219 C 834.261719 622.675781 834.054688 623.167969 834.054688 623.671875 L 834.054688 635.4375 C 834.054688 635.941406 834.261719 636.429688 834.613281 636.78125 C 834.972656 637.140625 835.460938 637.34375 835.960938 637.34375 L 915.359375 637.34375 C 915.863281 637.34375 916.335938 637.140625 916.695312 636.78125 C 917.0625 636.425781 917.253906 635.949219 917.253906 635.4375 L 917.253906 623.671875 C 917.253906 623.167969 917.054688 622.675781 916.703125 622.324219 C 916.34375 621.972656 915.855469 621.765625 915.359375 621.765625 L 915.359375 623.671875 L 913.453125 623.671875 L 913.453125 633.539062 L 837.863281 633.539062 L 837.863281 625.574219 L 915.359375 625.574219 L 915.359375 623.671875 L 913.453125 623.671875 L 915.359375 623.671875 " fill-opacity="1" fill-rule="nonzero"/><path fill="#f9e71e" d="M 875.65625 434.605469 C 869.824219 434.605469 864.339844 432.328125 860.214844 428.207031 L 795.675781 363.660156 C 787.167969 355.140625 787.167969 341.285156 795.675781 332.769531 L 860.214844 268.21875 C 864.339844 264.089844 869.824219 261.820312 875.65625 261.820312 C 881.492188 261.820312 886.972656 264.089844 891.097656 268.21875 L 955.632812 332.769531 C 959.757812 336.894531 962.03125 342.382812 962.03125 348.214844 C 962.03125 354.042969 959.757812 359.53125 955.632812 363.660156 L 891.097656 428.207031 C 886.972656 432.328125 881.492188 434.605469 875.65625 434.605469 " fill-opacity="1" fill-rule="nonzero"/><path fill="#5a231c" d="M 875.65625 259.917969 C 869.3125 259.917969 863.351562 262.386719 858.867188 266.871094 L 794.332031 331.421875 C 785.078125 340.675781 785.078125 355.742188 794.332031 365.003906 L 858.867188 429.554688 C 863.351562 434.039062 869.3125 436.503906 875.65625 436.503906 C 881.996094 436.503906 887.957031 434.039062 892.441406 429.554688 L 956.980469 365.003906 C 961.464844 360.519531 963.933594 354.554688 963.933594 348.214844 C 963.933594 341.871094 961.464844 335.90625 956.980469 331.421875 L 892.441406 266.871094 C 887.957031 262.386719 881.996094 259.917969 875.65625 259.917969 Z M 875.65625 263.726562 C 880.761719 263.726562 885.859375 265.671875 889.75 269.5625 L 954.289062 334.113281 C 962.078125 341.898438 962.078125 354.527344 954.289062 362.304688 L 889.75 426.863281 C 885.859375 430.753906 880.761719 432.699219 875.65625 432.699219 C 870.554688 432.699219 865.457031 430.753906 861.558594 426.863281 L 797.023438 362.304688 C 789.238281 354.527344 789.238281 341.898438 797.023438 334.113281 L 861.558594 269.5625 C 865.457031 265.671875 870.554688 263.726562 875.65625 263.726562 " fill-opacity="1" fill-rule="nonzero"/><path fill="#c59f21" d="M 954.289062 334.113281 L 889.75 269.5625 C 883.105469 262.917969 872.949219 261.964844 865.265625 266.664062 C 894.84375 276.078125 916.757812 304.105469 916.757812 336.472656 C 916.757812 376.109375 883.886719 409.222656 844.335938 409.628906 L 861.558594 426.863281 C 869.347656 434.648438 881.96875 434.648438 889.75 426.863281 L 954.289062 362.304688 C 962.078125 354.527344 962.078125 341.898438 954.289062 334.113281 " fill-opacity="1" fill-rule="nonzero"/><path fill="#f9e71e" d="M 875.65625 422.410156 C 870.597656 422.410156 865.835938 420.4375 862.25 416.855469 L 807.035156 361.621094 C 803.445312 358.039062 801.472656 353.277344 801.472656 348.214844 C 801.472656 343.148438 803.445312 338.386719 807.035156 334.804688 L 862.25 279.566406 C 865.835938 275.988281 870.597656 274.015625 875.65625 274.015625 C 880.71875 274.015625 885.480469 275.988281 889.070312 279.566406 L 944.289062 334.804688 C 947.871094 338.386719 949.84375 343.148438 949.84375 348.214844 C 949.84375 353.277344 947.871094 358.039062 944.289062 361.621094 L 889.070312 416.855469 C 885.480469 420.4375 880.71875 422.410156 875.65625 422.410156 " fill-opacity="1" fill-rule="nonzero"/><path fill="#5a231c" d="M 875.65625 272.109375 C 870.085938 272.109375 864.851562 274.277344 860.910156 278.21875 L 805.6875 333.457031 C 801.742188 337.398438 799.570312 342.636719 799.570312 348.214844 C 799.570312 353.78125 801.742188 359.027344 805.6875 362.96875 L 860.910156 418.207031 C 864.851562 422.140625 870.085938 424.316406 875.65625 424.316406 C 881.230469 424.316406 886.46875 422.140625 890.414062 418.207031 L 945.636719 362.96875 C 949.574219 359.027344 951.742188 353.78125 951.742188 348.214844 C 951.742188 342.636719 949.574219 337.398438 945.628906 333.457031 L 890.414062 278.226562 C 886.46875 274.277344 881.230469 272.109375 875.65625 272.109375 Z M 875.65625 275.921875 C 880.023438 275.921875 884.390625 277.582031 887.722656 280.917969 L 942.945312 336.148438 C 949.601562 342.808594 949.601562 353.609375 942.945312 360.277344 L 887.722656 415.515625 C 884.390625 418.84375 880.023438 420.503906 875.65625 420.503906 C 871.292969 420.503906 866.925781 418.84375 863.59375 415.515625 L 808.375 360.277344 C 801.707031 353.609375 801.707031 342.808594 808.375 336.148438 L 863.59375 280.917969 C 866.925781 277.582031 871.292969 275.921875 875.65625 275.921875 " fill-opacity="1" fill-rule="nonzero"/><path fill="#c59f21" d="M 906.765625 299.957031 C 913.101562 310.757812 916.757812 323.25 916.757812 336.472656 C 916.757812 371.960938 890.414062 402.183594 856.519531 408.433594 L 863.59375 415.515625 C 870.257812 422.167969 881.058594 422.167969 887.722656 415.515625 L 942.945312 360.277344 C 949.601562 353.609375 949.601562 342.808594 942.945312 336.148438 L 906.765625 299.957031 " fill-opacity="1" fill-rule="nonzero"/><path fill="#5a231c" d="M 849.394531 345.078125 L 849.394531 326.796875 L 841.699219 345.078125 Z M 834.578125 345.078125 L 848.695312 311.691406 L 857.164062 311.691406 L 857.164062 345.078125 L 860.832031 345.078125 L 860.832031 352.140625 L 857.164062 352.140625 L 857.164062 361.113281 L 849.394531 361.113281 L 849.394531 352.140625 L 834.578125 352.140625 L 834.578125 345.078125 " fill-opacity="1" fill-rule="nonzero"/><path fill="#5a231c" d="M 871.496094 349.746094 C 871.496094 353.273438 873.046875 354.609375 875.515625 354.609375 C 877.988281 354.609375 879.539062 353.273438 879.539062 349.746094 L 879.539062 323.050781 C 879.539062 319.515625 877.988281 318.183594 875.515625 318.183594 C 873.046875 318.183594 871.496094 319.515625 871.496094 323.050781 Z M 863.726562 323.546875 C 863.726562 315.636719 867.894531 311.125 875.515625 311.125 C 883.140625 311.125 887.308594 315.636719 887.308594 323.546875 L 887.308594 349.25 C 887.308594 357.152344 883.140625 361.679688 875.515625 361.679688 C 867.894531 361.679688 863.726562 357.152344 863.726562 349.25 L 863.726562 323.546875 " fill-opacity="1" fill-rule="nonzero"/><path fill="#5a231c" d="M 905.304688 345.078125 L 905.304688 326.796875 L 897.617188 345.078125 Z M 890.484375 345.078125 L 904.601562 311.691406 L 913.074219 311.691406 L 913.074219 345.078125 L 916.746094 345.078125 L 916.746094 352.140625 L 913.074219 352.140625 L 913.074219 361.113281 L 905.304688 361.113281 L 905.304688 352.140625 L 890.484375 352.140625 L 890.484375 345.078125 " fill-opacity="1" fill-rule="nonzero"/><path fill="#5a231c" d="M 850.585938 373.042969 L 855.058594 373.042969 L 855.058594 376.019531 L 850.585938 376.019531 L 850.585938 382.097656 L 856.21875 382.097656 L 856.21875 385.058594 L 847.316406 385.058594 L 847.316406 364.292969 L 856.21875 364.292969 L 856.21875 367.273438 L 850.585938 367.273438 L 850.585938 373.042969 " fill-opacity="1" fill-rule="nonzero"/><path fill="#5a231c" d="M 861.503906 367.273438 L 861.503906 373.644531 L 862.78125 373.644531 C 863.996094 373.644531 864.734375 373.105469 864.734375 371.449219 L 864.734375 369.402344 C 864.734375 367.921875 864.230469 367.273438 863.078125 367.273438 Z M 865.0625 385.058594 C 864.882812 384.535156 864.765625 384.203125 864.765625 382.519531 L 864.765625 379.25 C 864.765625 377.324219 864.113281 376.613281 862.628906 376.613281 L 861.503906 376.613281 L 861.503906 385.058594 L 858.246094 385.058594 L 858.246094 364.292969 L 863.160156 364.292969 C 866.546875 364.292969 868.003906 365.875 868.003906 369.074219 L 868.003906 370.703125 C 868.003906 372.851562 867.320312 374.238281 865.863281 374.921875 C 867.5 375.605469 868.023438 377.179688 868.023438 379.34375 L 868.023438 382.546875 C 868.023438 383.554688 868.066406 384.300781 868.382812 385.058594 L 865.0625 385.058594 " fill-opacity="1" fill-rule="nonzero"/><path fill="#5a231c" d="M 873.425781 367.273438 L 873.425781 373.644531 L 874.710938 373.644531 C 875.925781 373.644531 876.667969 373.105469 876.667969 371.449219 L 876.667969 369.402344 C 876.667969 367.921875 876.160156 367.273438 875.007812 367.273438 Z M 876.988281 385.058594 C 876.8125 384.535156 876.695312 384.203125 876.695312 382.519531 L 876.695312 379.25 C 876.695312 377.324219 876.046875 376.613281 874.558594 376.613281 L 873.425781 376.613281 L 873.425781 385.058594 L 870.167969 385.058594 L 870.167969 364.292969 L 875.097656 364.292969 C 878.476562 364.292969 879.925781 365.875 879.925781 369.074219 L 879.925781 370.703125 C 879.925781 372.851562 879.25 374.238281 877.792969 374.921875 C 879.421875 375.605469 879.960938 377.179688 879.960938 379.34375 L 879.960938 382.546875 C 879.960938 383.554688 879.988281 384.300781 880.320312 385.058594 L 876.988281 385.058594 " fill-opacity="1" fill-rule="nonzero"/><path fill="#5a231c" d="M 885.101562 380.285156 C 885.101562 381.773438 885.75 382.339844 886.785156 382.339844 C 887.832031 382.339844 888.480469 381.773438 888.480469 380.285156 L 888.480469 369.074219 C 888.480469 367.59375 887.832031 367.027344 886.785156 367.027344 C 885.75 367.027344 885.101562 367.59375 885.101562 369.074219 Z M 881.832031 369.289062 C 881.832031 365.964844 883.589844 364.058594 886.785156 364.058594 C 889.992188 364.058594 891.746094 365.964844 891.746094 369.289062 L 891.746094 380.082031 C 891.746094 383.410156 889.992188 385.308594 886.785156 385.308594 C 883.589844 385.308594 881.832031 383.410156 881.832031 380.082031 L 881.832031 369.289062 " fill-opacity="1" fill-rule="nonzero"/><path fill="#5a231c" d="M 897.113281 367.273438 L 897.113281 373.644531 L 898.398438 373.644531 C 899.613281 373.644531 900.355469 373.105469 900.355469 371.449219 L 900.355469 369.402344 C 900.355469 367.921875 899.847656 367.273438 898.695312 367.273438 Z M 900.675781 385.058594 C 900.503906 384.535156 900.378906 384.203125 900.378906 382.519531 L 900.378906 379.25 C 900.378906 377.324219 899.730469 376.613281 898.246094 376.613281 L 897.113281 376.613281 L 897.113281 385.058594 L 893.855469 385.058594 L 893.855469 364.292969 L 898.777344 364.292969 C 902.164062 364.292969 903.613281 365.875 903.613281 369.074219 L 903.613281 370.703125 C 903.613281 372.851562 902.929688 374.238281 901.476562 374.921875 C 903.109375 375.605469 903.648438 377.179688 903.648438 379.34375 L 903.648438 382.546875 C 903.648438 383.554688 903.675781 384.300781 904 385.058594 L 900.675781 385.058594 " fill-opacity="1" fill-rule="nonzero"/><path fill="#5a231c" d="M 879.519531 285.6875 C 879.519531 287.820312 877.789062 289.542969 875.660156 289.542969 C 873.53125 289.542969 871.804688 287.820312 871.804688 285.6875 C 871.804688 283.558594 873.53125 281.828125 875.660156 281.828125 C 877.789062 281.828125 879.519531 283.558594 879.519531 285.6875 " fill-opacity="1" fill-rule="nonzero"/><path fill="#5a231c" d="M 879.519531 410.292969 C 879.519531 412.429688 877.789062 414.15625 875.660156 414.15625 C 873.53125 414.15625 871.804688 412.429688 871.804688 410.292969 C 871.804688 408.164062 873.53125 406.433594 875.660156 406.433594 C 877.789062 406.433594 879.519531 408.164062 879.519531 410.292969 " fill-opacity="1" fill-rule="nonzero"/><path fill="#a0a4a3" d="M 592.453125 630.207031 C 591.394531 630.207031 590.546875 629.355469 590.546875 628.308594 L 590.546875 493.804688 C 590.546875 492.75 591.394531 491.902344 592.453125 491.902344 L 607.472656 491.902344 C 608.527344 491.902344 609.378906 492.75 609.378906 493.804688 L 609.378906 628.308594 C 609.378906 629.355469 608.527344 630.207031 607.472656 630.207031 L 592.453125 630.207031 " fill-opacity="1" fill-rule="nonzero"/><path fill="#5a231c" d="M 607.472656 489.996094 L 592.453125 489.996094 C 590.347656 489.996094 588.644531 491.699219 588.644531 493.804688 L 588.644531 628.308594 C 588.644531 630.40625 590.347656 632.109375 592.453125 632.109375 L 607.472656 632.109375 C 609.578125 632.109375 611.28125 630.40625 611.28125 628.308594 L 611.28125 493.804688 C 611.28125 491.699219 609.578125 489.996094 607.472656 489.996094 Z M 607.472656 493.804688 L 607.472656 628.308594 L 592.453125 628.308594 L 592.453125 493.804688 L 607.472656 493.804688 " fill-opacity="1" fill-rule="nonzero"/><path fill="#a0a4a3" d="M 799.039062 630.207031 C 797.988281 630.207031 797.132812 629.355469 797.132812 628.308594 L 797.132812 493.804688 C 797.132812 492.75 797.988281 491.902344 799.039062 491.902344 L 814.066406 491.902344 C 815.113281 491.902344 815.964844 492.75 815.964844 493.804688 L 815.964844 628.308594 C 815.964844 629.355469 815.113281 630.207031 814.066406 630.207031 L 799.039062 630.207031 " fill-opacity="1" fill-rule="nonzero"/><path fill="#5a231c" d="M 814.066406 489.996094 L 799.039062 489.996094 C 796.941406 489.996094 795.234375 491.699219 795.234375 493.804688 L 795.234375 628.308594 C 795.234375 630.40625 796.941406 632.109375 799.039062 632.109375 L 814.066406 632.109375 C 816.164062 632.109375 817.867188 630.40625 817.867188 628.308594 L 817.867188 493.804688 C 817.867188 491.699219 816.164062 489.996094 814.066406 489.996094 Z M 814.066406 493.804688 L 814.066406 628.308594 L 799.039062 628.308594 L 799.039062 493.804688 L 814.066406 493.804688 " fill-opacity="1" fill-rule="nonzero"/><path fill="#5c6065" d="M 599.601562 493.804688 L 599.601562 628.308594 L 607.472656 628.308594 L 607.472656 493.804688 L 599.601562 493.804688 " fill-opacity="1" fill-rule="nonzero"/><path fill="#5c6065" d="M 806.957031 493.804688 L 806.957031 628.308594 L 814.066406 628.308594 L 814.066406 493.804688 L 806.957031 493.804688 " fill-opacity="1" fill-rule="nonzero"/><path fill="#a0a4a3" d="M 581.175781 637.34375 C 580.128906 637.34375 579.273438 636.492188 579.273438 635.4375 L 579.273438 623.78125 C 579.273438 622.730469 580.128906 621.875 581.175781 621.875 L 615.359375 621.875 C 616.414062 621.875 617.265625 622.730469 617.265625 623.78125 L 617.265625 635.4375 C 617.265625 636.492188 616.414062 637.34375 615.359375 637.34375 L 581.175781 637.34375 " fill-opacity="1" fill-rule="nonzero"/><g clip-path="url(#id2)"><path fill="#5a231c" d="M 615.359375 619.976562 L 581.175781 619.976562 C 579.078125 619.976562 577.375 621.683594 577.375 623.78125 L 577.375 635.4375 C 577.375 637.542969 579.078125 639.246094 581.175781 639.246094 L 615.359375 639.246094 C 617.464844 639.246094 619.167969 637.542969 619.167969 635.4375 L 619.167969 623.78125 C 619.167969 621.683594 617.464844 619.976562 615.359375 619.976562 Z M 615.359375 623.78125 L 615.359375 635.4375 L 581.175781 635.4375 L 581.175781 623.78125 L 615.359375 623.78125 " fill-opacity="1" fill-rule="nonzero"/></g><path fill="#a0a4a3" d="M 791.152344 637.34375 C 790.101562 637.34375 789.246094 636.492188 789.246094 635.4375 L 789.246094 623.78125 C 789.246094 622.730469 790.101562 621.875 791.152344 621.875 L 825.332031 621.875 C 826.390625 621.875 827.238281 622.730469 827.238281 623.78125 L 827.238281 635.4375 C 827.238281 636.492188 826.390625 637.34375 825.332031 637.34375 L 791.152344 637.34375 " fill-opacity="1" fill-rule="nonzero"/><g clip-path="url(#id3)"><path fill="#5a231c" d="M 825.332031 619.976562 L 791.152344 619.976562 C 789.054688 619.976562 787.347656 621.683594 787.347656 623.78125 L 787.347656 635.4375 C 787.347656 637.542969 789.054688 639.246094 791.152344 639.246094 L 825.332031 639.246094 C 827.4375 639.246094 829.140625 637.542969 829.140625 635.4375 L 829.140625 623.78125 C 829.140625 621.683594 827.4375 619.976562 825.332031 619.976562 Z M 825.332031 623.78125 L 825.332031 635.4375 L 791.152344 635.4375 L 791.152344 623.78125 L 825.332031 623.78125 " fill-opacity="1" fill-rule="nonzero"/></g><path fill="#5c6065" d="M 581.175781 629.054688 L 581.175781 635.4375 L 615.359375 635.4375 L 615.359375 629.054688 L 581.175781 629.054688 " fill-opacity="1" fill-rule="nonzero"/><path fill="#5c6065" d="M 791.152344 629.054688 L 791.152344 635.4375 L 825.332031 635.4375 L 825.332031 629.054688 L 791.152344 629.054688 " fill-opacity="1" fill-rule="nonzero"/><path fill="#f9e71e" d="M 572.164062 506.226562 C 571.117188 506.226562 570.269531 505.371094 570.269531 504.324219 L 570.269531 469.007812 C 570.269531 467.960938 571.117188 467.105469 572.164062 467.105469 L 834.34375 467.105469 C 835.394531 467.105469 836.25 467.960938 836.25 469.007812 L 836.25 504.324219 C 836.25 505.371094 835.394531 506.226562 834.34375 506.226562 L 572.164062 506.226562 " fill-opacity="1" fill-rule="nonzero"/><path fill="#5a231c" d="M 834.34375 465.207031 L 572.164062 465.207031 C 570.066406 465.207031 568.363281 466.902344 568.363281 469.007812 L 568.363281 504.324219 C 568.363281 506.429688 570.066406 508.125 572.164062 508.125 L 834.34375 508.125 C 836.449219 508.125 838.152344 506.429688 838.152344 504.324219 L 838.152344 469.007812 C 838.152344 466.902344 836.449219 465.207031 834.34375 465.207031 Z M 834.34375 469.007812 L 834.34375 504.324219 L 572.164062 504.324219 L 572.164062 469.007812 L 834.34375 469.007812 " fill-opacity="1" fill-rule="nonzero"/><path fill="#c59f21" d="M 788.300781 469.0625 C 780.019531 475.433594 771.1875 481.191406 761.6875 485.578125 C 753.261719 489.484375 744.484375 493.917969 735.179688 495.324219 C 726.261719 496.683594 717.257812 498.160156 708.207031 498.179688 C 663.085938 498.304688 616.203125 497.347656 572.214844 485.945312 L 572.214844 504.269531 L 834.398438 504.269531 L 834.398438 468.953125 L 788.453125 468.953125 L 788.300781 469.0625 " fill-opacity="1" fill-rule="nonzero"/><path fill="#5a231c" d="M 590.457031 469.304688 L 572.164062 469.304688 L 572.164062 503.46875 Z M 590.457031 469.304688 " fill-opacity="1" fill-rule="nonzero"/><path fill="#5a231c" d="M 616.25 504.621094 L 635.363281 468.933594 L 612.074219 468.933594 L 592.960938 504.621094 L 616.25 504.621094 " fill-opacity="1" fill-rule="nonzero"/><path fill="#5a231c" d="M 660.941406 504.621094 L 680.0625 468.933594 L 656.773438 468.933594 L 637.660156 504.621094 L 660.941406 504.621094 " fill-opacity="1" fill-rule="nonzero"/><path fill="#5a231c" d="M 705.644531 504.621094 L 724.757812 468.933594 L 701.472656 468.933594 L 682.359375 504.621094 L 705.644531 504.621094 " fill-opacity="1" fill-rule="nonzero"/><path fill="#5a231c" d="M 750.34375 504.621094 L 769.457031 468.933594 L 746.167969 468.933594 L 727.058594 504.621094 L 750.34375 504.621094 " fill-opacity="1" fill-rule="nonzero"/><path fill="#5a231c" d="M 795.042969 504.621094 L 814.15625 468.933594 L 790.867188 468.933594 L 771.753906 504.621094 L 795.042969 504.621094 " fill-opacity="1" fill-rule="nonzero"/><path fill="#5a231c" d="M 834.34375 504.621094 L 834.34375 471.21875 L 816.453125 504.621094 Z M 834.34375 504.621094 " fill-opacity="1" fill-rule="nonzero"/><path fill="#f25429" d="M 905.808594 625.808594 C 905.125 625.808594 904.496094 625.445312 904.160156 624.855469 C 903.820312 624.269531 903.820312 623.546875 904.160156 622.953125 L 950.527344 542.632812 C 950.863281 542.046875 951.492188 541.679688 952.167969 541.679688 C 952.851562 541.679688 953.480469 542.046875 953.820312 542.632812 L 1000.179688 622.953125 C 1000.519531 623.546875 1000.519531 624.269531 1000.179688 624.855469 C 999.839844 625.445312 999.214844 625.808594 998.53125 625.808594 L 905.808594 625.808594 " fill-opacity="1" fill-rule="nonzero"/><path fill="#5a231c" d="M 952.167969 539.777344 C 950.808594 539.777344 949.554688 540.507812 948.878906 541.679688 L 925.695312 581.847656 L 902.511719 622 C 901.832031 623.179688 901.832031 624.628906 902.511719 625.808594 C 903.191406 626.988281 904.449219 627.707031 905.808594 627.707031 L 998.53125 627.707031 C 999.890625 627.707031 1001.144531 626.988281 1001.828125 625.808594 C 1002.503906 624.628906 1002.503906 623.179688 1001.828125 622 L 978.652344 581.847656 L 955.46875 541.679688 C 954.785156 540.507812 953.527344 539.777344 952.167969 539.777344 Z M 952.167969 543.585938 L 975.351562 583.746094 L 998.53125 623.90625 L 905.808594 623.90625 L 928.992188 583.746094 L 952.167969 543.585938 " fill-opacity="1" fill-rule="nonzero"/><path fill="#ad4127" d="M 975.351562 583.746094 L 970.296875 574.980469 C 969.144531 594.144531 952.84375 609.769531 933.4375 609.769531 C 927.328125 609.769531 921.539062 608.21875 916.425781 605.503906 L 905.808594 623.90625 L 998.53125 623.90625 L 975.351562 583.746094 " fill-opacity="1" fill-rule="nonzero"/><path fill="#f25429" d="M 889.371094 637.34375 C 888.316406 637.34375 887.46875 636.492188 887.46875 635.4375 L 887.46875 617.320312 C 887.46875 616.265625 888.316406 615.414062 889.371094 615.414062 L 1014.964844 615.414062 C 1016.015625 615.414062 1016.871094 616.265625 1016.871094 617.320312 L 1016.871094 635.4375 C 1016.871094 636.492188 1016.015625 637.34375 1014.964844 637.34375 L 889.371094 637.34375 " fill-opacity="1" fill-rule="nonzero"/><g clip-path="url(#id4)"><path fill="#5a231c" d="M 1014.964844 613.511719 L 889.371094 613.511719 C 887.269531 613.511719 885.5625 615.214844 885.5625 617.320312 L 885.5625 635.4375 C 885.5625 637.542969 887.269531 639.246094 889.371094 639.246094 L 1014.964844 639.246094 C 1017.070312 639.246094 1018.773438 637.542969 1018.773438 635.4375 L 1018.773438 617.320312 C 1018.773438 615.214844 1017.070312 613.511719 1014.964844 613.511719 Z M 1014.964844 617.320312 L 1014.964844 635.4375 L 889.371094 635.4375 L 889.371094 617.320312 L 1014.964844 617.320312 " fill-opacity="1" fill-rule="nonzero"/></g><path fill="#ffffff" d="M 906.042969 625.394531 C 905.367188 625.394531 904.738281 625.03125 904.402344 624.441406 C 904.054688 623.855469 904.054688 623.132812 904.402344 622.539062 L 915.929688 602.566406 C 916.269531 601.972656 916.898438 601.613281 917.578125 601.613281 L 986.765625 601.613281 C 987.441406 601.613281 988.070312 601.972656 988.40625 602.566406 L 999.945312 622.539062 C 1000.28125 623.132812 1000.28125 623.855469 999.945312 624.441406 C 999.601562 625.03125 998.972656 625.394531 998.296875 625.394531 L 906.042969 625.394531 " fill-opacity="1" fill-rule="nonzero"/><path fill="#5a231c" d="M 986.765625 599.707031 L 917.578125 599.707031 C 916.21875 599.707031 914.964844 600.433594 914.28125 601.613281 L 902.75 621.585938 C 902.070312 622.765625 902.070312 624.214844 902.75 625.394531 C 903.425781 626.574219 904.683594 627.300781 906.042969 627.300781 L 998.296875 627.300781 C 999.65625 627.300781 1000.910156 626.574219 1001.585938 625.394531 C 1002.269531 624.214844 1002.269531 622.765625 1001.585938 621.585938 L 990.058594 601.613281 C 989.375 600.433594 988.117188 599.707031 986.765625 599.707031 Z M 986.765625 603.519531 L 998.296875 623.492188 L 906.042969 623.492188 L 917.578125 603.519531 L 986.765625 603.519531 " fill-opacity="1" fill-rule="nonzero"/><path fill="#bdbcbc" d="M 907.257812 621.390625 L 906.042969 623.492188 L 998.296875 623.492188 L 996.191406 619.855469 L 986.765625 603.519531 L 953.761719 603.519531 C 947.90625 607.445312 940.902344 609.769531 933.4375 609.769531 C 927.335938 609.769531 921.539062 608.21875 916.425781 605.503906 L 907.257812 621.390625 " fill-opacity="1" fill-rule="nonzero"/><path fill="#ffffff" d="M 929.109375 585.4375 C 928.425781 585.4375 927.796875 585.078125 927.460938 584.484375 C 927.121094 583.898438 927.121094 583.171875 927.460938 582.585938 L 938.992188 562.613281 C 939.328125 562.019531 939.957031 561.660156 940.632812 561.660156 L 963.699219 561.660156 C 964.382812 561.660156 965.011719 562.019531 965.347656 562.605469 L 976.878906 582.585938 C 977.214844 583.171875 977.214844 583.898438 976.878906 584.484375 C 976.539062 585.078125 975.914062 585.4375 975.230469 585.4375 L 929.109375 585.4375 " fill-opacity="1" fill-rule="nonzero"/><path fill="#5a231c" d="M 963.699219 559.753906 L 940.632812 559.753906 C 939.28125 559.753906 938.023438 560.480469 937.339844 561.660156 L 925.8125 581.632812 C 925.128906 582.8125 925.128906 584.261719 925.8125 585.4375 C 926.496094 586.617188 927.742188 587.339844 929.109375 587.339844 L 975.230469 587.339844 C 976.59375 587.339844 977.851562 586.617188 978.527344 585.4375 C 979.210938 584.261719 979.210938 582.8125 978.527344 581.632812 L 966.996094 561.660156 C 966.3125 560.480469 965.058594 559.753906 963.699219 559.753906 Z M 963.699219 563.558594 L 975.230469 583.539062 L 929.109375 583.539062 L 940.632812 563.558594 L 963.699219 563.558594 " fill-opacity="1" fill-rule="nonzero"/><path fill="#bdbcbc" d="M 975.230469 583.539062 L 972.523438 578.851562 L 970.296875 574.980469 C 970.117188 577.925781 969.578125 580.796875 968.730469 583.539062 L 975.230469 583.539062 " fill-opacity="1" fill-rule="nonzero"/><path fill="#f25429" d="M 523.375 625.808594 C 522.699219 625.808594 522.070312 625.445312 521.734375 624.855469 C 521.386719 624.269531 521.386719 623.546875 521.734375 622.953125 L 568.09375 542.632812 C 568.433594 542.046875 569.058594 541.679688 569.742188 541.679688 C 570.417969 541.679688 571.046875 542.046875 571.386719 542.632812 L 617.746094 622.953125 C 618.09375 623.546875 618.09375 624.269531 617.746094 624.855469 C 617.410156 625.445312 616.78125 625.808594 616.105469 625.808594 L 523.375 625.808594 " fill-opacity="1" fill-rule="nonzero"/><path fill="#5a231c" d="M 569.742188 539.777344 C 568.382812 539.777344 567.128906 540.507812 566.445312 541.679688 L 543.261719 581.847656 L 520.085938 622 C 519.402344 623.179688 519.402344 624.628906 520.085938 625.808594 C 520.761719 626.988281 522.015625 627.707031 523.375 627.707031 L 616.105469 627.707031 C 617.464844 627.707031 618.71875 626.988281 619.394531 625.808594 C 620.078125 624.628906 620.078125 623.179688 619.394531 622 L 596.21875 581.847656 L 573.035156 541.679688 C 572.359375 540.507812 571.101562 539.777344 569.742188 539.777344 Z M 569.742188 543.585938 L 592.925781 583.746094 L 616.105469 623.90625 L 523.375 623.90625 L 569.742188 543.585938 " fill-opacity="1" fill-rule="nonzero"/><path fill="#ad4127" d="M 592.925781 583.746094 L 587.863281 574.980469 C 586.71875 594.144531 570.414062 609.769531 551.003906 609.769531 C 544.902344 609.769531 539.113281 608.21875 533.996094 605.503906 L 523.375 623.90625 L 616.105469 623.90625 L 592.925781 583.746094 " fill-opacity="1" fill-rule="nonzero"/><path fill="#f25429" d="M 506.941406 637.34375 C 505.890625 637.34375 505.035156 636.492188 505.035156 635.4375 L 505.035156 617.320312 C 505.035156 616.265625 505.890625 615.414062 506.941406 615.414062 L 632.539062 615.414062 C 633.589844 615.414062 634.445312 616.265625 634.445312 617.320312 L 634.445312 635.4375 C 634.445312 636.492188 633.589844 637.34375 632.539062 637.34375 L 506.941406 637.34375 " fill-opacity="1" fill-rule="nonzero"/><g clip-path="url(#id5)"><path fill="#5a231c" d="M 632.539062 613.511719 L 506.941406 613.511719 C 504.84375 613.511719 503.132812 615.214844 503.132812 617.320312 L 503.132812 635.4375 C 503.132812 637.542969 504.84375 639.246094 506.941406 639.246094 L 632.539062 639.246094 C 634.636719 639.246094 636.34375 637.542969 636.34375 635.4375 L 636.34375 617.320312 C 636.34375 615.214844 634.636719 613.511719 632.539062 613.511719 Z M 632.539062 617.320312 L 632.539062 635.4375 L 506.941406 635.4375 L 506.941406 617.320312 L 632.539062 617.320312 " fill-opacity="1" fill-rule="nonzero"/></g><path fill="#ffffff" d="M 523.617188 625.394531 C 522.933594 625.394531 522.304688 625.03125 521.96875 624.441406 C 521.628906 623.855469 521.628906 623.132812 521.96875 622.539062 L 533.496094 602.566406 C 533.84375 601.972656 534.472656 601.613281 535.148438 601.613281 L 604.332031 601.613281 C 605.015625 601.613281 605.644531 601.972656 605.980469 602.566406 L 617.511719 622.539062 C 617.851562 623.132812 617.851562 623.855469 617.511719 624.441406 C 617.175781 625.03125 616.546875 625.394531 615.863281 625.394531 L 523.617188 625.394531 " fill-opacity="1" fill-rule="nonzero"/><path fill="#5a231c" d="M 604.332031 599.707031 L 535.148438 599.707031 C 533.789062 599.707031 532.53125 600.433594 531.855469 601.613281 L 520.320312 621.585938 C 519.644531 622.765625 519.644531 624.214844 520.320312 625.394531 C 521.003906 626.574219 522.257812 627.300781 523.617188 627.300781 L 615.863281 627.300781 C 617.222656 627.300781 618.476562 626.574219 619.160156 625.394531 C 619.835938 624.214844 619.835938 622.765625 619.160156 621.585938 L 607.632812 601.613281 C 606.949219 600.433594 605.691406 599.707031 604.332031 599.707031 Z M 604.332031 603.519531 L 615.863281 623.492188 L 523.617188 623.492188 L 535.148438 603.519531 L 604.332031 603.519531 " fill-opacity="1" fill-rule="nonzero"/><path fill="#bdbcbc" d="M 524.824219 621.390625 L 523.617188 623.492188 L 615.863281 623.492188 L 613.765625 619.855469 L 604.332031 603.519531 L 571.332031 603.519531 C 565.472656 607.445312 558.46875 609.769531 551.003906 609.769531 C 544.902344 609.769531 539.113281 608.21875 534 605.503906 L 524.824219 621.390625 " fill-opacity="1" fill-rule="nonzero"/><path fill="#ffffff" d="M 546.675781 585.4375 C 545.992188 585.4375 545.371094 585.078125 545.027344 584.484375 C 544.691406 583.898438 544.691406 583.171875 545.027344 582.585938 L 556.558594 562.613281 C 556.894531 562.019531 557.53125 561.660156 558.207031 561.660156 L 581.273438 561.660156 C 581.949219 561.660156 582.578125 562.019531 582.921875 562.605469 L 594.453125 582.585938 C 594.789062 583.171875 594.789062 583.898438 594.453125 584.484375 C 594.113281 585.078125 593.480469 585.4375 592.804688 585.4375 L 546.675781 585.4375 " fill-opacity="1" fill-rule="nonzero"/><path fill="#5a231c" d="M 581.273438 559.753906 L 558.207031 559.753906 C 556.847656 559.753906 555.589844 560.480469 554.910156 561.660156 L 543.378906 581.632812 C 542.703125 582.8125 542.703125 584.261719 543.378906 585.4375 C 544.0625 586.617188 545.316406 587.339844 546.675781 587.339844 L 592.804688 587.339844 C 594.164062 587.339844 595.417969 586.617188 596.101562 585.4375 C 596.777344 584.261719 596.777344 582.8125 596.101562 581.632812 L 584.566406 561.660156 C 583.886719 560.480469 582.632812 559.753906 581.273438 559.753906 Z M 581.273438 563.558594 L 592.804688 583.539062 L 546.675781 583.539062 L 558.207031 563.558594 L 581.273438 563.558594 " fill-opacity="1" fill-rule="nonzero"/><path fill="#bdbcbc" d="M 592.804688 583.539062 L 590.097656 578.851562 L 587.863281 574.980469 C 587.691406 577.925781 587.144531 580.796875 586.296875 583.539062 L 592.804688 583.539062 " fill-opacity="1" fill-rule="nonzero"/><path fill="#5a231c" d="M 602.683594 424.777344 L 602.683594 434.785156 L 604.878906 434.785156 C 606.355469 434.785156 607.164062 434.109375 607.164062 431.996094 L 607.164062 427.566406 C 607.164062 425.453125 606.355469 424.777344 604.878906 424.777344 Z M 611.804688 427.863281 L 611.804688 431.707031 C 611.804688 436.425781 609.523438 439.007812 604.878906 439.007812 L 602.683594 439.007812 L 602.683594 450.113281 L 598.039062 450.113281 L 598.039062 420.5625 L 604.878906 420.5625 C 609.523438 420.5625 611.804688 423.128906 611.804688 427.863281 " fill-opacity="1" fill-rule="nonzero"/><path fill="#5a231c" d="M 617.84375 440.742188 L 622.316406 440.742188 L 620.078125 425.792969 Z M 628.433594 450.113281 L 623.75 450.113281 L 622.949219 444.742188 L 617.25 444.742188 L 616.449219 450.113281 L 612.183594 450.113281 L 616.910156 420.5625 L 623.707031 420.5625 L 628.433594 450.113281 " fill-opacity="1" fill-rule="nonzero"/><path fill="#5a231c" d="M 637.515625 433.644531 L 644.015625 433.644531 L 644.015625 443.019531 C 644.015625 447.746094 641.648438 450.449219 637.09375 450.449219 C 632.535156 450.449219 630.171875 447.746094 630.171875 443.019531 L 630.171875 427.648438 C 630.171875 422.921875 632.535156 420.222656 637.09375 420.222656 C 641.648438 420.222656 644.015625 422.921875 644.015625 427.648438 L 644.015625 430.519531 L 639.625 430.519531 L 639.625 427.351562 C 639.625 425.238281 638.695312 424.4375 637.21875 424.4375 C 635.742188 424.4375 634.8125 425.238281 634.8125 427.351562 L 634.8125 443.316406 C 634.8125 445.417969 635.742188 446.1875 637.21875 446.1875 C 638.695312 446.1875 639.625 445.417969 639.625 443.316406 L 639.625 437.871094 L 637.515625 437.871094 L 637.515625 433.644531 " fill-opacity="1" fill-rule="nonzero"/><path fill="#5a231c" d="M 651.652344 433.011719 L 658.027344 433.011719 L 658.027344 437.234375 L 651.652344 437.234375 L 651.652344 445.890625 L 659.679688 445.890625 L 659.679688 450.113281 L 647.015625 450.113281 L 647.015625 420.5625 L 659.679688 420.5625 L 659.679688 424.777344 L 651.652344 424.777344 L 651.652344 433.011719 " fill-opacity="1" fill-rule="nonzero"/><path fill="#5a231c" d="M 673.230469 428.703125 L 673.230469 450.113281 L 669.046875 450.113281 L 669.046875 420.5625 L 674.871094 420.5625 L 679.640625 438.25 L 679.640625 420.5625 L 683.78125 420.5625 L 683.78125 450.113281 L 679.011719 450.113281 L 673.230469 428.703125 " fill-opacity="1" fill-rule="nonzero"/><path fill="#5a231c" d="M 691.375 443.316406 C 691.375 445.417969 692.308594 446.226562 693.785156 446.226562 C 695.261719 446.226562 696.191406 445.417969 696.191406 443.316406 L 696.191406 427.351562 C 696.191406 425.238281 695.261719 424.4375 693.785156 424.4375 C 692.308594 424.4375 691.375 425.238281 691.375 427.351562 Z M 686.734375 427.648438 C 686.734375 422.921875 689.222656 420.222656 693.785156 420.222656 C 698.339844 420.222656 700.835938 422.921875 700.835938 427.648438 L 700.835938 443.019531 C 700.835938 447.746094 698.339844 450.449219 693.785156 450.449219 C 689.222656 450.449219 686.734375 447.746094 686.734375 443.019531 L 686.734375 427.648438 " fill-opacity="1" fill-rule="nonzero"/><path fill="#5a231c" d="M 702.480469 420.5625 L 716.832031 420.5625 L 716.832031 424.777344 L 711.980469 424.777344 L 711.980469 450.113281 L 707.335938 450.113281 L 707.335938 424.777344 L 702.480469 424.777344 L 702.480469 420.5625 " fill-opacity="1" fill-rule="nonzero"/><path fill="#5a231c" d="M 730.042969 433.6875 L 736.039062 433.6875 L 736.039062 437.910156 L 730.042969 437.910156 L 730.042969 450.113281 L 725.40625 450.113281 L 725.40625 420.5625 L 737.691406 420.5625 L 737.691406 424.777344 L 730.042969 424.777344 L 730.042969 433.6875 " fill-opacity="1" fill-rule="nonzero"/><path fill="#5a231c" d="M 744.1875 443.316406 C 744.1875 445.417969 745.113281 446.226562 746.597656 446.226562 C 748.074219 446.226562 749 445.417969 749 443.316406 L 749 427.351562 C 749 425.238281 748.074219 424.4375 746.597656 424.4375 C 745.113281 424.4375 744.1875 425.238281 744.1875 427.351562 Z M 739.546875 427.648438 C 739.546875 422.921875 742.035156 420.222656 746.597656 420.222656 C 751.152344 420.222656 753.640625 422.921875 753.640625 427.648438 L 753.640625 443.019531 C 753.640625 447.746094 751.152344 450.449219 746.597656 450.449219 C 742.035156 450.449219 739.546875 447.746094 739.546875 443.019531 L 739.546875 427.648438 " fill-opacity="1" fill-rule="nonzero"/><path fill="#5a231c" d="M 761.074219 420.5625 L 761.074219 443.355469 C 761.074219 445.46875 762 446.226562 763.480469 446.226562 C 764.957031 446.226562 765.882812 445.46875 765.882812 443.355469 L 765.882812 420.5625 L 770.269531 420.5625 L 770.269531 443.058594 C 770.269531 447.785156 767.910156 450.484375 763.351562 450.484375 C 758.796875 450.484375 756.429688 447.785156 756.429688 443.058594 L 756.429688 420.5625 L 761.074219 420.5625 " fill-opacity="1" fill-rule="nonzero"/><path fill="#5a231c" d="M 777.578125 428.703125 L 777.578125 450.113281 L 773.402344 450.113281 L 773.402344 420.5625 L 779.226562 420.5625 L 783.996094 438.25 L 783.996094 420.5625 L 788.128906 420.5625 L 788.128906 450.113281 L 783.359375 450.113281 L 777.578125 428.703125 " fill-opacity="1" fill-rule="nonzero"/><path fill="#5a231c" d="M 796.113281 424.777344 L 796.113281 445.890625 L 798.726562 445.890625 C 800.203125 445.890625 801.09375 445.128906 801.09375 443.019531 L 801.09375 427.648438 C 801.09375 425.535156 800.203125 424.777344 798.726562 424.777344 Z M 791.46875 420.5625 L 798.808594 420.5625 C 803.453125 420.5625 805.730469 423.128906 805.730469 427.863281 L 805.730469 442.804688 C 805.730469 447.53125 803.453125 450.113281 798.808594 450.113281 L 791.46875 450.113281 L 791.46875 420.5625 " fill-opacity="1" fill-rule="nonzero"/></svg>